<svg width="128" height="128" viewBox="0 0 128 128" fill="none" xmlns="http://www.w3.org/2000/svg">
<g clip-path="url(#clip0_7_54)">
<path d="M127.352 43.1993C121.625 79.0903 90.7902 105.578 54.4502 105.832C50.8842 105.969 47.3132 105.75 43.7942 105.184C28.6142 102.61 17.2982 89.7823 16.6342 74.3993C16.7592 57.0633 30.7822 43.0403 48.1222 42.9153C65.4622 42.7903 79.6802 56.6173 80.0472 73.9533C80.1762 79.2073 77.9022 83.8243 73.2232 83.9533C68.2232 83.9533 65.8792 80.3833 65.8792 75.5743V62.2153C65.8832 57.7193 62.2582 54.0593 57.7622 54.0243H46.5592C37.5822 53.9623 29.7272 60.0363 27.5242 68.7393C25.3212 77.4423 29.3482 86.5203 37.2742 90.7353C41.1261 92.7822 45.553 93.4785 49.8472 92.713C54.1415 91.9474 58.055 89.7642 60.9622 86.5123L61.3532 85.9303L61.7442 86.5753C64.4822 90.2943 68.8962 92.3953 73.5062 92.1773C77.5514 91.8834 81.3215 90.0197 84.0112 86.984C86.701 83.9484 88.0974 79.9815 87.9022 75.9303C87.9412 72.4503 87.5542 68.9813 86.7422 65.6023C84.6648 56.0504 79.1253 47.6054 71.1913 41.8951C63.2574 36.1848 53.4905 33.6133 43.7732 34.6763C23.6452 36.8793 8.43024 53.9223 8.51224 74.1683C8.77424 95.7113 26.0242 113.191 47.5592 113.734C47.5592 113.734 50.4892 114 53.8012 113.929C69.876 113.824 85.5871 109.135 99.0902 100.413C99.2812 100.288 99.4732 100.542 99.3442 100.741C92.7699 107.822 84.7313 113.385 75.7879 117.043C66.8446 120.701 57.2115 122.366 47.5592 121.921C34.8092 122.151 22.5202 117.159 13.5392 108.109C4.55824 99.0593 -0.331758 86.7233 0.000242235 73.9773C0.00403363 66.4558 1.76186 59.0387 5.13407 52.3155C8.50627 45.5923 13.3999 39.7481 19.4262 35.2473C27.5251 29.2856 37.3108 26.0555 47.3672 26.0243H62.3982C68.2708 26.0202 74.0781 24.7931 79.4503 22.4212C84.8225 20.0492 89.6418 16.5843 93.6012 12.2473C93.6851 12.1549 93.7961 12.0915 93.9183 12.0662C94.0405 12.0408 94.1676 12.0549 94.2812 12.1063C94.5192 12.2083 94.6602 12.4503 94.6402 12.7043C94.0032 19.4623 91.7532 25.9663 88.0782 31.6733C87.9692 31.8763 87.9882 32.1263 88.1292 32.3063C88.1972 32.3964 88.29 32.4648 88.3962 32.503C88.5024 32.5412 88.6175 32.5475 88.7272 32.5213C95.6663 30.9545 102.141 27.7807 107.63 23.2554C113.118 18.73 117.468 12.9794 120.329 6.46631C120.401 6.34897 120.501 6.25199 120.621 6.18469C120.74 6.11738 120.875 6.08203 121.013 6.08203C121.15 6.08203 121.285 6.11738 121.405 6.18469C121.525 6.25199 121.625 6.34897 121.696 6.46631C127.59 17.7491 129.579 30.6661 127.352 43.1993ZM46.5202 61.8243C40.0982 61.8243 34.8872 67.0313 34.8872 73.4573C34.8891 76.542 36.1153 79.4998 38.2965 81.681C40.4777 83.8622 43.4355 85.0884 46.5202 85.0903C52.9462 85.0903 58.1532 79.8793 58.1532 73.4573V62.6023C58.1437 62.3929 58.0563 62.1947 57.9081 62.0465C57.7599 61.8983 57.5616 61.8108 57.3522 61.8013L46.5202 61.8243Z" fill="#A19073"/>
</g>
<defs>
<clipPath id="clip0_7_54">
<rect width="128" height="128" fill="white"/>
</clipPath>
</defs>
</svg>
