<svg width="128" height="128" viewBox="0 0 128 128" fill="none" xmlns="http://www.w3.org/2000/svg">
<path d="M27.2344 13.8848C20.0574 13.8848 14.7484 20.1688 14.9854 26.9838C15.2134 33.5298 14.9174 42.0098 12.7824 48.9238C10.6424 55.8598 7.02238 60.2428 1.10938 60.8068V67.1938C7.02238 67.7568 10.6424 72.1408 12.7824 79.0768C14.9174 85.9908 15.2124 94.4708 14.9854 101.017C14.7474 107.832 20.0574 114.115 27.2344 114.115H100.774C107.951 114.115 113.26 107.831 113.023 101.017C112.795 94.4708 113.091 85.9908 115.225 79.0768C117.365 72.1418 120.976 67.7578 126.889 67.1938V60.8068C120.976 60.2438 117.366 55.8598 115.225 48.9238C113.091 42.0098 112.795 33.5298 113.023 26.9838C113.26 20.1688 107.951 13.8848 100.773 13.8848H27.2344ZM85.3484 75.5708C85.3484 84.9548 78.3464 90.6438 66.7274 90.6438H45.3054C45.1752 90.6438 45.0503 90.592 44.9582 90.5C44.8661 90.4079 44.8144 90.283 44.8144 90.1528V37.8268C44.8142 37.7622 44.8268 37.6982 44.8515 37.6386C44.8761 37.5789 44.9122 37.5246 44.9578 37.4789C45.0034 37.4332 45.0576 37.397 45.1172 37.3722C45.1769 37.3475 45.2408 37.3348 45.3054 37.3348H66.6144C76.3034 37.3348 82.6614 42.5808 82.6614 50.6348C82.6614 56.2878 78.3844 61.3478 72.9344 62.2348V62.5308C80.3524 63.3438 85.3484 68.4788 85.3484 75.5708ZM64.5704 44.0958H53.2924V60.0178H62.7924C70.1344 60.0178 74.1834 57.0628 74.1834 51.7798C74.1834 46.8298 70.7024 44.0958 64.5704 44.0958ZM53.2924 66.3358V83.8838H64.9874C72.6324 83.8838 76.6824 80.8178 76.6824 75.0538C76.6824 69.2908 72.5194 66.3358 64.4954 66.3358H53.2924Z" fill="#A19073"/>
</svg>
