<svg width="128" height="128" viewBox="0 0 128 128" fill="none" xmlns="http://www.w3.org/2000/svg">
<path fill-rule="evenodd" clip-rule="evenodd" d="M82.1077 78.4312C82.5867 77.1992 83.1297 75.9862 83.5347 74.7302C85.8227 67.6332 88.0887 60.5302 90.3397 53.4212C91.2047 50.6902 92.1527 48.0012 93.8547 45.6542C96.5467 41.9452 100.297 40.0022 104.735 39.3232C106.483 39.0635 108.247 38.9278 110.015 38.9172C115.282 38.8672 120.551 38.9022 125.819 38.9072C126.099 38.9072 126.379 38.9362 126.776 38.9592C126.647 39.2632 126.577 39.4842 126.465 39.6832C124.51 43.1772 122.593 46.6922 120.58 50.1512C117.075 56.1732 113.564 62.1932 109.949 68.1492C107.63 71.9682 105.115 75.6692 102.262 79.1232C100.157 81.6712 97.9407 84.1072 95.1157 85.8932C93.1907 87.1102 91.1347 87.8222 88.8007 87.8102C80.5227 87.7652 72.2447 87.7982 63.9667 87.7862C61.5057 87.7822 59.3987 86.8452 57.6107 85.1832C55.0477 82.8022 53.5177 79.7712 52.2657 76.5752C49.9817 70.7402 48.7027 64.6242 47.2347 58.5612C46.5467 55.7232 45.7647 52.9072 45.0197 50.0832C44.9717 49.9002 44.8777 49.7292 44.7697 49.4662L44.1927 50.0082C40.9647 53.2152 38.1217 56.7492 35.5777 60.5062C34.8847 61.5302 34.6517 62.8802 34.2647 64.0972C32.8407 68.5672 31.5427 73.0802 30.0007 77.5082C28.5237 81.7502 25.8757 85.1242 21.7367 87.1182C19.3367 88.2817 16.7142 88.9144 14.0477 88.9732C10.0677 89.0612 6.08571 89.0712 2.10471 89.1072C1.15271 89.1162 1.10871 89.0382 1.35671 88.1172C3.06371 81.7792 5.22671 75.6032 7.93671 69.6252C10.7307 63.4582 14.0217 57.5772 18.1677 52.2062C20.9907 48.5492 24.1087 45.1752 28.0107 42.6242C29.9897 41.3312 32.0937 40.3092 34.4877 40.0402C34.8817 39.9952 35.2807 39.9672 35.6767 39.9672C44.1547 39.9632 52.6327 40.0492 61.1097 39.9282C65.6567 39.8632 68.9487 41.7832 71.4137 45.4432C72.9467 47.7192 74.0437 50.2042 74.9667 52.7712C76.8277 57.9492 77.9847 63.3182 79.2917 68.6492C80.0397 71.7002 80.8727 74.7302 81.6707 77.7692C81.7307 77.9972 81.8277 78.2152 81.9087 78.4372L82.1077 78.4312Z" fill="#A19073"/>
</svg>
