<svg width="41" height="41" viewBox="0 0 41 41" fill="none" xmlns="http://www.w3.org/2000/svg">
<path opacity="0.6" d="M19.945 3.83333H14.3884C12.9149 3.83333 11.5017 4.41868 10.4598 5.4606C9.41787 6.50252 8.83252 7.91567 8.83252 9.38917C8.83252 10.8627 9.41787 12.2758 10.4598 13.3177C11.5017 14.3597 12.9149 14.945 14.3884 14.945H19.945V3.83333Z" fill="#8D7C60"/>
<path opacity="0.4" d="M19.945 14.945H14.3883C12.915 14.945 11.5021 15.5303 10.4603 16.572C9.41857 17.6138 8.83331 19.0267 8.83331 20.5C8.83331 21.9733 9.41857 23.3862 10.4603 24.428C11.5021 25.4697 12.915 26.055 14.3883 26.055H19.945V14.945Z" fill="#8D7C60"/>
<path d="M31.055 20.5C31.055 21.9735 30.4697 23.3866 29.4278 24.4286C28.3858 25.4705 26.9727 26.0558 25.4992 26.0558C24.0257 26.0558 22.6125 25.4705 21.5706 24.4286C20.5287 23.3866 19.9434 21.9735 19.9434 20.5C19.9434 19.0265 20.5287 17.6134 21.5706 16.5714C22.6125 15.5295 24.0257 14.9442 25.4992 14.9442C26.9727 14.9442 28.3858 15.5295 29.4278 16.5714C30.4697 17.6134 31.055 19.0265 31.055 20.5Z" fill="#8D7C60"/>
<path opacity="0.2" d="M14.3884 26.0567H19.945V31.6117C19.9447 32.7102 19.6187 33.784 19.0081 34.6972C18.3976 35.6105 17.53 36.3222 16.5151 36.7425C15.5001 37.1627 14.3833 37.2726 13.3059 37.0582C12.2285 36.8438 11.2388 36.3148 10.462 35.538C9.68527 34.7612 9.15624 33.7715 8.94184 32.6941C8.72745 31.6167 8.83732 30.4999 9.25755 29.485C9.67779 28.47 10.3895 27.6024 11.3028 26.9919C12.2161 26.3814 13.2898 26.057 14.3884 26.0567Z" fill="#8D7C60"/>
<path opacity="0.8" d="M19.9434 3.83333H25.4984C26.9719 3.83333 28.385 4.41868 29.4269 5.4606C30.4688 6.50252 31.0542 7.91567 31.0542 9.38917C31.0542 10.8627 30.4688 12.2758 29.4269 13.3177C28.385 14.3597 26.9719 14.945 25.4984 14.945H19.9434V3.83333Z" fill="#8D7C60"/>
</svg>
