<svg width="128" height="128" viewBox="0 0 128 128" fill="none" xmlns="http://www.w3.org/2000/svg">
<g clip-path="url(#clip0_7_77)">
<path d="M34.8719 8.1508e-05C34.769 0.00125659 34.6663 0.0106195 34.5649 0.0280815C34.1631 0.0945147 33.7926 0.286138 33.5062 0.575614C33.2198 0.865089 33.0321 1.23763 32.9699 1.64008L17.9109 98.0001L27.8219 79.1331L52.8879 31.4091L36.5999 1.02808L36.5979 1.02608C36.4316 0.713528 36.1827 0.452591 35.8784 0.271684C35.5741 0.0907762 35.2259 -0.00316756 34.8719 8.1508e-05ZM63.2589 18.2941C62.5369 18.2941 61.8789 18.6901 61.5429 19.3291L54.0839 33.5321L54.0759 33.5181L19.9759 98.4401L30.7259 87.6731L65.1859 53.1531L76.6889 41.6291L64.9769 19.3291C64.8122 19.0163 64.565 18.7545 64.2622 18.5721C63.9594 18.3896 63.6124 18.2935 63.2589 18.2941ZM95.4339 26.5951C95.2589 26.5891 95.0839 26.6073 94.9139 26.6491C94.5682 26.7333 94.2523 26.9112 94.0009 27.1631L79.1799 42.0061L66.6229 54.5891L17.6289 103.667L59.2419 127.004H59.2439C60.4134 127.657 61.7308 128 63.0704 128C64.41 128 65.7274 127.657 66.8969 127.004L109.429 103.357L97.2839 28.2041V28.2121C97.2247 27.8609 97.0697 27.5328 96.8362 27.264C96.6026 26.9951 96.2994 26.7958 95.9599 26.6881C95.7896 26.6332 95.6127 26.6019 95.4339 26.5951ZM110.372 103.995L109.772 104.044L110.021 104.19L110.372 103.995Z" fill="#A19073"/>
</g>
<defs>
<clipPath id="clip0_7_77">
<rect width="128" height="128" fill="white"/>
</clipPath>
</defs>
</svg>
