<svg width="128" height="128" viewBox="0 0 128 128" fill="none" xmlns="http://www.w3.org/2000/svg">
<g clip-path="url(#clip0_7_83)">
<path d="M35.6848 54.135C34.5548 54.135 33.4238 53.519 32.9098 52.491L32.0868 50.846L31.7788 52.696L31.6758 53.519C31.6758 56.911 34.3488 59.584 37.7408 59.584C41.1328 59.584 43.8068 56.911 43.8068 53.519C43.8068 50.332 41.2368 47.659 38.0498 47.453L36.3018 47.35L37.7418 48.481C38.4608 49.098 38.9748 50.023 38.9748 50.949C38.8718 52.696 37.4328 54.135 35.6848 54.135ZM35.1708 40.36C40.3108 40.36 44.7308 43.855 46.0678 48.481C46.8654 46.264 48.2092 44.284 49.9748 42.724C33.2178 41.696 26.0218 26.791 26.0218 26.791L25.6108 45.604C26.6316 43.9935 28.0438 42.668 29.7155 41.7512C31.3873 40.8343 33.2641 40.355 35.1708 40.36ZM61.6938 61.948C63.5204 61.9477 65.2722 61.2219 66.5637 59.9302C67.8552 58.6384 68.5808 56.8866 68.5808 55.06C68.5808 51.36 65.7028 48.276 62.0018 48.173L60.4598 48.07L61.6938 48.995C62.6188 49.715 63.1328 50.845 63.1328 52.079C63.1331 52.592 63.0322 53.1001 62.836 53.5742C62.6398 54.0483 62.3522 54.479 61.9894 54.8419C61.6267 55.2047 61.196 55.4925 60.722 55.6888C60.2479 55.8851 59.7399 55.9861 59.2268 55.986C57.7868 55.986 56.4508 55.163 55.7308 53.93L55.0108 52.593L54.8058 54.135L54.7028 55.061C54.8058 58.761 57.8908 61.948 61.6938 61.948ZM127.794 110.47C127.397 109.061 126.986 107.656 126.561 106.255C123.991 97.003 122.038 89.807 113.916 90.527C112.683 90.629 111.655 91.041 110.73 91.657L102.608 86.517H102.3L101.683 84.564L100.45 85.386C97.8798 83.742 95.0008 82.302 92.1228 80.966C101.375 69.966 106.412 50.537 102.917 18.772C102.608 15.996 101.067 15.585 100.038 18.566C99.2158 21.136 93.7678 37.379 65.7028 41.902C69.4028 44.266 71.8708 48.378 71.8708 53.107C71.8744 54.8629 71.5311 56.6023 70.8608 58.2253C70.1904 59.8484 69.2062 61.323 67.9645 62.5647C66.7229 63.8063 65.2482 64.7906 63.6252 65.4609C62.0022 66.1313 60.2628 66.4745 58.5068 66.471C52.2368 66.471 46.8908 62.051 45.5538 56.191C43.8068 60.303 39.7978 63.181 35.0688 63.181C30.3388 63.181 26.3308 60.303 24.5828 56.191C24.4798 56.397 24.3768 56.602 24.2748 56.705C24.1718 56.5 23.9658 56.295 23.8628 55.985C18.3128 48.378 9.47081 45.295 4.02281 49.201C-1.42519 53.211 -1.32319 62.565 4.22881 70.172C8.85481 76.546 15.7418 79.732 21.0878 78.293C36.6108 89.807 65.2918 99.779 84.5158 87.545C88.3188 89.705 92.6358 91.76 96.6458 93.199V93.302L97.0568 94.536L98.7018 93.919L98.9078 94.125L107.954 97.415C108.057 100.293 109.804 103.479 113.505 104.919C120.393 107.591 126.972 110.881 126.972 110.984L128 111.498L127.794 110.47ZM3.40581 56.91C3.40581 53.621 5.66781 50.948 8.33981 50.948C11.1158 50.948 13.2748 53.621 13.2748 56.911C13.2748 60.201 11.0128 62.873 8.33981 62.873C5.56481 62.873 3.40581 60.2 3.40581 56.91ZM41.0308 76.032C59.8428 79.835 69.5068 76.34 75.0578 71.92C73.6178 69.967 71.0478 67.91 71.0478 67.91C71.0478 67.91 77.6278 69.76 79.9918 72.742C81.0198 74.079 81.3288 75.209 81.2258 76.34C77.9358 75.21 75.4688 74.49 74.9558 74.284C72.8988 73.359 70.9458 73.976 70.4318 75.518C70.0208 76.648 70.3288 77.985 71.3568 79.013C64.8808 81.994 54.2918 80.76 41.0308 76.032Z" fill="#A19073"/>
</g>
<defs>
<clipPath id="clip0_7_83">
<rect width="128" height="128" fill="white"/>
</clipPath>
</defs>
</svg>
