<svg width="128" height="128" viewBox="0 0 128 128" fill="none" xmlns="http://www.w3.org/2000/svg">
<g clip-path="url(#clip0_7_91)">
<path d="M124.742 58.3773L69.6247 3.26331C66.4527 0.0893126 61.3047 0.0893126 58.1277 3.26331L46.6847 14.7093L61.2027 29.2273C64.5777 28.0883 68.4457 28.8523 71.1347 31.5413C72.4162 32.8239 73.3108 34.4413 73.7163 36.2085C74.1218 37.9757 74.0218 39.8213 73.4277 41.5343L87.4197 55.5283C90.8047 54.3613 94.7117 55.1153 97.4137 57.8233C101.194 61.6003 101.194 67.7233 97.4137 71.5023C96.5154 72.401 95.4489 73.114 94.275 73.6004C93.1011 74.0868 91.8429 74.3371 90.5722 74.3371C89.3015 74.3371 88.0433 74.0868 86.8694 73.6004C85.6955 73.114 84.629 72.401 83.7307 71.5023C82.3811 70.1519 81.4611 68.4324 81.0865 66.5603C80.712 64.6881 80.8996 62.7471 81.6257 60.9813L68.5777 47.9323L68.5757 82.2733C69.5224 82.7395 70.3867 83.3569 71.1347 84.1013C74.9137 87.8783 74.9137 93.9993 71.1347 97.7843C67.3557 101.561 61.2307 101.561 57.4557 97.7843C53.6777 94.0003 53.3677 87.8793 57.1447 84.1013C58.0787 83.1683 58.9997 82.4633 59.9997 81.9913V47.3323C58.9997 46.8603 58.0797 46.1603 57.1437 45.2213C54.2827 42.3613 53.7477 38.1613 55.2157 34.6453L40.9827 20.3323L3.2287 58.1223C0.0536954 61.2993 0.0736954 66.4473 3.2487 69.6223L58.3747 124.736C61.5477 127.91 66.6997 127.91 69.8777 124.736L124.738 69.8783C127.913 66.7023 127.916 61.5513 124.742 58.3773Z" fill="#A19073"/>
</g>
<defs>
<clipPath id="clip0_7_91">
<rect width="128" height="128" fill="white"/>
</clipPath>
</defs>
</svg>
