<svg width="128" height="128" viewBox="0 0 128 128" fill="none" xmlns="http://www.w3.org/2000/svg">
<path fill-rule="evenodd" clip-rule="evenodd" d="M11.1561 54.8298C10.9131 54.8298 10.8531 54.7078 10.9741 54.5268L12.2471 52.8898C12.3671 52.7078 12.6711 52.5868 12.9131 52.5868H34.5501C34.7931 52.5868 34.8531 52.7688 34.7321 52.9508L33.7021 54.5268C33.5811 54.7078 33.2781 54.8898 33.0961 54.8898L11.1561 54.8298ZM2.00409 60.4048C1.76209 60.4048 1.70109 60.2848 1.82209 60.1018L3.09509 58.4658C3.21609 58.2838 3.51909 58.1628 3.76209 58.1628H31.3981C31.6401 58.1628 31.7621 58.3448 31.7011 58.5268L31.2161 59.9808C31.1561 60.2238 30.9131 60.3448 30.6711 60.3448L2.00409 60.4048ZM16.6701 65.9808C16.4281 65.9808 16.3681 65.7988 16.4891 65.6168L17.3371 64.1018C17.4591 63.9198 17.7011 63.7388 17.9441 63.7388H30.0641C30.3071 63.7388 30.4281 63.9198 30.4281 64.1628L30.3081 65.6168C30.3081 65.8598 30.0651 66.0418 29.8831 66.0418L16.6701 65.9808ZM79.5801 53.7388C75.7611 54.7088 73.1551 55.4358 69.3981 56.4048C68.4881 56.6478 68.4281 56.7078 67.6401 55.7988C66.7311 54.7688 66.0641 54.1018 64.7921 53.4958C60.9731 51.6178 57.2761 52.1628 53.8221 54.4058C49.7011 57.0718 47.5801 61.0108 47.6401 65.9198C47.7001 70.7688 51.0341 74.7688 55.8221 75.4358C59.9431 75.9808 63.3981 74.5258 66.1251 71.4358C66.6701 70.7688 67.1551 70.0418 67.7611 69.1928H56.0641C54.7921 69.1928 54.4891 68.4048 54.9131 67.3748C55.7011 65.4958 57.1551 62.3448 58.0031 60.7688C58.1861 60.4048 58.6101 59.7988 59.5191 59.7988H81.5791C81.4591 61.4358 81.4591 63.0718 81.2161 64.7088C80.5491 69.0718 78.9131 73.0718 76.2461 76.5868C71.8821 82.3448 66.1861 85.9198 58.9731 86.8898C53.0341 87.6778 47.5191 86.5258 42.6711 82.8898C38.1861 79.4958 35.6411 75.0108 34.9741 69.4358C34.1861 62.8298 36.1251 56.8898 40.1251 51.6778C44.4281 46.0418 50.1251 42.4658 57.0951 41.1928C62.7921 40.1628 68.2461 40.8298 73.1551 44.1628C76.3671 46.2838 78.6701 49.1928 80.1851 52.7078C80.5491 53.2538 80.3071 53.5568 79.5791 53.7378L79.5801 53.7388Z" fill="#A19073"/>
<path d="M99.6403 87.2529C94.1253 87.1309 89.0943 85.5559 84.8523 81.9189C81.2763 78.8289 79.0343 74.8889 78.3073 70.2219C77.2163 63.3739 79.0943 57.3129 83.2163 51.9199C87.6403 46.1009 92.9733 43.0709 100.186 41.7979C106.367 40.7079 112.186 41.3139 117.458 44.8889C122.246 48.1619 125.215 52.5859 126.003 58.4039C127.033 66.5859 124.67 73.2529 119.033 78.9499C115.033 83.0099 110.124 85.5559 104.488 86.7069C102.852 87.0099 101.215 87.0709 99.6403 87.2529ZM114.064 62.7679C114.004 61.9799 114.004 61.3739 113.882 60.7679C112.792 54.7679 107.276 51.3739 101.519 52.7079C95.8823 53.9799 92.2463 57.5559 90.9133 63.2529C89.8223 67.9799 92.1253 72.7679 96.4883 74.7069C99.8223 76.1619 103.155 75.9799 106.367 74.3439C111.155 71.8589 113.761 67.9799 114.064 62.7679Z" fill="#A19073"/>
</svg>
