<svg width="128" height="129" viewBox="0 0 128 129" fill="none" xmlns="http://www.w3.org/2000/svg">
<path fill-rule="evenodd" clip-rule="evenodd" d="M63.895 94.803C91.328 132.201 118.176 84.365 118.136 55.598C118.09 21.586 83.618 2.577 63.873 2.577C32.182 2.577 2 28.769 2 64.605C2 104.437 36.596 126.5 63.873 126.5C57.701 125.611 37.131 121.204 36.854 73.826C36.668 41.782 47.307 28.98 63.828 34.612C64.198 34.749 82.051 41.792 82.051 64.799C82.051 87.707 63.895 94.803 63.895 94.803Z" fill="url(#paint0_linear_2004_64)"/>
<path fill-rule="evenodd" clip-rule="evenodd" d="M63.863 34.586C45.736 28.338 23.53 43.278 23.53 73.203C23.53 122.065 59.739 126.5 64.128 126.5C95.818 126.5 126 100.308 126 64.472C126 24.64 91.404 2.577 64.127 2.577C71.682 1.531 104.846 10.753 104.846 56.081C104.846 85.64 80.082 101.732 63.976 94.857C63.606 94.72 45.753 87.677 45.753 64.67C45.753 41.76 63.863 34.586 63.863 34.586Z" fill="url(#paint1_linear_2004_64)"/>
<defs>
<linearGradient id="paint0_linear_2004_64" x1="19.2517" y1="21.9579" x2="106.597" y2="109.328" gradientUnits="userSpaceOnUse">
<stop stop-color="#8D7C60"/>
<stop offset="1" stop-color="#CDB793"/>
</linearGradient>
<linearGradient id="paint1_linear_2004_64" x1="110.558" y1="105.358" x2="23.2127" y2="17.9963" gradientUnits="userSpaceOnUse">
<stop stop-color="#8D7C60"/>
<stop offset="1" stop-color="#CDB793"/>
</linearGradient>
</defs>
</svg>
