<svg width="128" height="128" viewBox="0 0 128 128" fill="none" xmlns="http://www.w3.org/2000/svg">
<path d="M0 51.098V76.86H4.422V56.604L20.73 76.87H48.424V72.757H30.553V65.956H44.923V61.843H30.553V55.222H48.423V51.106H26.13V55.222H26.132V76.68L5.527 51.098H0ZM85.09 51.108V55.223H94.12V76.873H98.54V55.223H107.387V51.107H85.09V51.108ZM53.768 51.119L74.498 76.883H80.301L69.936 64.01L80.286 51.139L74.496 51.149L67.037 60.41L59.557 51.12H53.767L53.768 51.119ZM123.926 65.717C123.165 65.717 122.481 65.845 121.875 66.111C121.273 66.374 120.797 66.744 120.449 67.219C120.099 67.695 119.924 68.251 119.924 68.883C119.924 69.653 120.182 70.267 120.704 70.73C121.221 71.194 121.931 71.539 122.828 71.766L124.068 72.078C124.418 72.1628 124.761 72.2745 125.094 72.412C125.352 72.5141 125.586 72.6715 125.777 72.873C125.943 73.0668 126.031 73.315 126.025 73.57C126.028 73.8625 125.927 74.1467 125.742 74.373C125.541 74.6158 125.278 74.8005 124.982 74.908C124.62 75.0417 124.236 75.1068 123.85 75.1C123.47 75.1052 123.092 75.0436 122.734 74.918C122.422 74.8056 122.145 74.6136 121.93 74.361C121.718 74.0949 121.595 73.7694 121.578 73.43H119.637C119.664 74.14 119.853 74.746 120.203 75.242C120.553 75.738 121.039 76.115 121.663 76.372C122.283 76.632 123.02 76.762 123.865 76.762C124.74 76.762 125.484 76.626 126.098 76.362C126.715 76.092 127.186 75.719 127.512 75.244C127.839 74.765 128 74.216 128 73.586C128 73.12 127.91 72.714 127.734 72.369C127.559 72.0258 127.314 71.7235 127.014 71.482C126.702 71.232 126.356 71.0277 125.986 70.875C125.601 70.7119 125.203 70.583 124.796 70.49L123.776 70.24C123.551 70.1861 123.328 70.121 123.109 70.045C122.9 69.9737 122.699 69.8781 122.512 69.76C122.338 69.656 122.191 69.5128 122.082 69.342C121.973 69.1685 121.918 68.9667 121.924 68.762C121.925 68.5037 122.008 68.2525 122.162 68.045C122.318 67.835 122.547 67.669 122.84 67.545C123.177 67.4155 123.535 67.353 123.896 67.361C124.481 67.361 124.958 67.487 125.326 67.744C125.504 67.8639 125.652 68.0225 125.76 68.2077C125.868 68.393 125.932 68.6003 125.949 68.814H127.849C127.849 68.2381 127.67 67.6764 127.336 67.207C127.003 66.741 126.544 66.374 125.959 66.111C125.375 65.846 124.699 65.717 123.926 65.717ZM115.928 65.861V73.411C115.925 73.788 115.866 74.108 115.752 74.365C115.649 74.6082 115.472 74.8126 115.246 74.949C115.028 75.082 114.758 75.149 114.443 75.149C114.153 75.149 113.897 75.092 113.672 74.979C113.455 74.8726 113.274 74.7055 113.15 74.498C113.019 74.2699 112.952 74.0109 112.955 73.748H110.992C110.992 74.409 111.139 74.961 111.439 75.404C111.737 75.848 112.158 76.196 112.65 76.406C113.193 76.6385 113.779 76.7543 114.37 76.746C115.067 76.746 115.681 76.612 116.205 76.346C116.719 76.0906 117.149 75.6914 117.441 75.197C117.734 74.698 117.885 74.104 117.889 73.41V65.861H115.928ZM62.596 65.92L53.752 76.902H59.557L65.494 69.522L62.596 65.92ZM108.381 74.418C108.057 74.418 107.781 74.53 107.551 74.754C107.44 74.8566 107.352 74.9815 107.292 75.1206C107.233 75.2597 107.204 75.4098 107.207 75.561C107.203 75.7139 107.232 75.8659 107.291 76.0069C107.351 76.1479 107.439 76.2747 107.551 76.379C107.781 76.604 108.057 76.715 108.381 76.715C108.583 76.7164 108.782 76.6625 108.955 76.559C109.132 76.458 109.273 76.319 109.383 76.143C109.491 75.968 109.548 75.7666 109.549 75.561C109.549 75.4093 109.518 75.2593 109.457 75.1204C109.396 74.9815 109.307 74.8567 109.195 74.754C109.089 74.6465 108.962 74.5614 108.822 74.5037C108.682 74.446 108.532 74.4168 108.381 74.418Z" fill="#8D7C60"/>
</svg>
