<svg width="128" height="128" viewBox="0 0 128 128" fill="none" xmlns="http://www.w3.org/2000/svg">
<path d="M62.9884 1.94304C50.0594 2.14304 37.0844 6.37104 26.0634 14.883C-1.0616 35.836 -6.0666 74.813 14.8874 101.938C35.8444 129.061 74.8244 134.062 101.945 113.105C129.059 92.153 134.063 53.187 113.117 26.066C100.68 9.96003 81.8844 1.65004 62.9884 1.94304ZM91.8634 25.082C93.8842 25.0941 95.8458 25.7662 97.4494 26.996L89.3814 35.113C89.3537 35.1438 89.3283 35.1765 89.3054 35.211C89.16 35.3582 89.0747 35.5543 89.0664 35.761C89.0664 35.8859 89.0946 36.0092 89.1488 36.1217C89.203 36.2342 89.2818 36.3331 89.3794 36.411H89.3814L95.4814 42.511C93.8117 43.2391 91.961 43.4461 90.1717 43.1047C88.3824 42.7634 86.7378 41.8897 85.4534 40.598C82.8674 37.998 82.1174 34.094 83.5004 30.707C84.8834 27.317 88.1804 25.102 91.8634 25.082ZM98.9834 28.514C100.303 30.1101 101.022 32.1174 101.016 34.188C101.013 36.6138 100.046 38.9389 98.3284 40.652C97.984 40.976 97.6171 41.2751 97.2304 41.547L92.3074 36.7L91.3444 35.737L91.6094 35.472L98.9824 28.512L98.9834 28.514ZM98.6174 32.707C98.4364 32.6499 98.2408 32.6609 98.0674 32.738C97.8958 32.8269 97.7664 32.98 97.7074 33.164C97.6784 33.2559 97.6679 33.3526 97.6765 33.4485C97.6851 33.5445 97.7126 33.6378 97.7574 33.723C97.9351 34.0966 98.0052 34.5124 97.9598 34.9236C97.9144 35.3348 97.7553 35.7252 97.5004 36.051C97.4352 36.1139 97.3841 36.19 97.3505 36.2741C97.3169 36.3582 97.3015 36.4485 97.3054 36.539C97.3094 36.723 97.3754 36.899 97.5004 37.031C97.6337 37.082 97.7811 37.082 97.9144 37.031C98.0346 37.061 98.1608 37.0576 98.2792 37.0211C98.3977 36.9847 98.5039 36.9165 98.5864 36.824C99.0119 36.3022 99.2813 35.6708 99.3636 35.0026C99.4458 34.3343 99.3376 33.6565 99.0514 33.047V33.051C98.9539 32.887 98.7994 32.7645 98.6174 32.707ZM79.3404 39.43C80.5473 39.4701 81.7086 39.9002 82.6504 40.656C81.6357 40.8021 80.6953 41.2721 79.9694 41.996L57.1624 64.701L52.6864 60.225C64.5144 48.453 71.7464 42.304 76.2424 40.289C77.1684 39.7048 78.2457 39.4068 79.3404 39.43ZM83.3054 42.39C84.0712 42.3901 84.8058 42.6936 85.3484 43.234C85.6372 43.5048 85.865 43.834 86.0165 44.1998C86.1681 44.5655 86.24 44.9593 86.2274 45.355C86.2143 45.7492 86.1201 46.1365 85.9506 46.4927C85.7812 46.8488 85.54 47.1662 85.2424 47.425L60.9924 68.531L58.3754 65.914L81.2624 43.234C81.8051 42.6939 82.5397 42.3898 83.3054 42.39ZM86.2994 49.088C84.6094 55.79 75.6524 64.871 66.3124 73.695L62.5354 69.922L86.2994 49.088ZM51.3674 61.547L51.6414 61.817L55.1544 65.33L45.5244 67.39L51.3674 61.547ZM57.1604 67.387L57.1644 67.391L58.3324 68.586C58.3373 68.6143 58.3433 68.6423 58.3504 68.67L58.4284 68.682L58.6764 68.936L59.4964 69.776L54.1114 70.436L57.1614 67.386L57.1604 67.387ZM61.0274 71.463L64.6054 75.039C56.6937 81.618 48.0117 87.211 38.7504 91.695C38.4497 91.8382 38.208 92.0812 38.0663 92.3826C37.9246 92.684 37.8918 93.0252 37.9734 93.348L39.0084 97.848C39.0465 97.9009 39.0671 97.9644 39.0671 98.0295C39.0671 98.0947 39.0465 98.1582 39.0084 98.211C38.9515 98.2621 38.8778 98.2903 38.8014 98.2903C38.725 98.2903 38.6513 98.2621 38.5944 98.211L32.4924 92.059L51.3004 72.975L61.0274 71.463ZM31.0944 93.403L31.9634 94.217L36.4554 98.709L26.4394 98.061L31.0944 93.403Z" fill="#A19073"/>
</svg>
