<svg width="128" height="128" viewBox="0 0 128 128" fill="none" xmlns="http://www.w3.org/2000/svg">
<g clip-path="url(#clip0_7_39)">
<path d="M3.05303 50.9502C2.24436 50.9502 1.46872 51.271 0.896348 51.8423C0.323972 52.4135 0.0016161 53.1886 2.68454e-05 53.9972V73.5472C-0.00165928 73.9492 0.0760977 74.3476 0.228831 74.7195C0.381565 75.0914 0.606266 75.4294 0.890027 75.7142C1.17361 75.999 1.5107 76.225 1.8819 76.3791C2.2531 76.5332 2.6511 76.6124 3.05303 76.6122H22.633C23.0344 76.612 23.4319 76.5325 23.8025 76.3785C24.1732 76.2244 24.5098 75.9986 24.793 75.7142C25.0764 75.4294 25.3007 75.0914 25.4533 74.7198C25.6058 74.3481 25.6835 73.95 25.682 73.5482V53.9982C25.681 53.1897 25.3593 52.4147 24.7875 51.8431C24.2157 51.2715 23.4405 50.95 22.632 50.9492L3.05303 50.9502ZM88.891 50.9512V71.2212C88.891 75.1132 91.051 76.7582 94.486 76.7582C95.1958 76.7848 95.9059 76.7131 96.596 76.5452V71.9822C96.3365 72.0119 96.0752 72.0239 95.814 72.0182C94.909 72.0182 94.168 71.6192 94.168 70.4962V50.9512H88.891ZM99.897 50.9512V71.2212C99.897 75.1132 102.061 76.7582 105.497 76.7582C106.211 76.7863 106.925 76.7146 107.619 76.5452V71.9822C107.361 72.0118 107.102 72.0239 106.842 72.0182C105.92 72.0182 105.174 71.6192 105.174 70.4962V50.9512H99.897ZM35.785 52.8302V57.7902H41.665V76.6132H47.334V57.7912H53.211V52.8312L35.785 52.8302ZM5.76803 55.6852H10.047C10.3162 55.6863 10.574 55.7937 10.7643 55.984C10.9546 56.1743 11.062 56.4321 11.063 56.7012L11.076 69.4352C11.0752 69.5696 11.0479 69.7024 10.9955 69.8262C10.9432 69.9499 10.8669 70.0621 10.771 70.1562C10.6757 70.2506 10.5626 70.3252 10.4384 70.3758C10.3142 70.4265 10.1812 70.4521 10.047 70.4512H5.76703C5.49861 70.4499 5.24162 70.3424 5.05219 70.1522C4.86276 69.9621 4.75629 69.7046 4.75603 69.4362V56.7002C4.75603 56.1402 5.20803 55.6872 5.76803 55.6852ZM15.643 55.6852H19.92C20.48 55.6882 20.934 56.1412 20.934 56.7012L20.949 63.5882C20.949 63.8592 20.839 64.1222 20.646 64.3122C20.5505 64.4068 20.4371 64.4815 20.3125 64.532C20.1879 64.5825 20.0545 64.6077 19.92 64.6062H15.643C15.3734 64.6049 15.1153 64.4972 14.9246 64.3066C14.734 64.116 14.6263 63.8578 14.625 63.5882V56.7002C14.6266 56.431 14.7345 56.1733 14.9251 55.9832C15.1158 55.7931 15.3738 55.686 15.643 55.6852ZM77.074 57.7092C71.43 57.7092 67.814 61.8032 67.814 67.5212C67.814 73.4582 70.933 76.9842 77.981 76.9842C80.0711 77.0015 82.1462 76.6309 84.101 75.8912V71.4552C82.291 72.0352 80.254 72.6112 78.164 72.6112C75.358 72.6112 73.405 71.6892 72.928 69.0232C74.396 69.1841 75.8713 69.2702 77.348 69.2812C81.363 69.2812 84.752 68.2062 84.752 64.3182C84.752 60.5462 81.267 57.7092 77.074 57.7092ZM119.109 57.7172C113.44 57.7172 110.149 61.6312 110.149 67.3502C110.149 73.0312 113.477 77.0502 119.109 77.0502C124.742 77.0502 128 73.0802 128 67.3502C128 61.6202 124.778 57.7172 119.109 57.7172ZM65.336 57.8322C62.822 57.8552 61.361 59.3052 60.428 61.6462V58.1002H55.188V76.6132H60.428V66.9122C60.428 63.9462 62.147 63.0402 65.85 63.3282V57.8462C65.6789 57.8352 65.5075 57.8306 65.336 57.8322ZM76.966 61.7482C78.452 61.7482 79.645 62.7582 79.645 64.1372C79.645 65.9102 77.775 66.4652 75.619 66.4652C74.7015 66.4607 73.7856 66.3875 72.879 66.2462C72.9474 65.3822 73.1954 64.542 73.607 63.7792C73.937 63.1742 74.4222 62.6681 75.0128 62.3131C75.6034 61.958 76.278 61.7668 76.967 61.7592L76.966 61.7482ZM119.109 62.4122C121.734 62.4122 122.865 64.5642 122.865 67.3502C122.865 70.1362 121.763 72.3442 119.109 72.3442C116.456 72.3442 115.287 70.1342 115.287 67.3502C115.287 64.5602 116.485 62.4122 119.109 62.4122Z" fill="#A19073"/>
</g>
<defs>
<clipPath id="clip0_7_39">
<rect width="128" height="128" fill="white"/>
</clipPath>
</defs>
</svg>
