<svg width="128" height="128" viewBox="0 0 128 128" fill="none" xmlns="http://www.w3.org/2000/svg">
<path d="M64.144 56.789C59.168 56.789 55.581 60.034 55.581 64.901C55.581 69.768 59.615 73.014 64.595 73.014C67.601 73.014 70.251 71.824 71.892 69.819L68.444 67.827C67.534 68.823 66.15 69.404 64.595 69.404C62.436 69.404 60.602 68.277 59.921 66.474H72.55C72.6538 65.9547 72.7067 65.4266 72.708 64.897C72.708 60.034 69.125 56.789 64.144 56.789ZM59.885 63.324C60.448 61.526 61.99 60.394 64.145 60.394C66.303 60.394 67.845 61.526 68.404 63.324H59.885ZM58.866 51.831L46.377 73.465L33.884 51.83H38.567L46.373 65.351L54.179 51.83L58.866 51.831ZM16.654 49.578L33.307 78.423H0L16.654 49.578ZM90.826 64.902C90.826 67.606 92.593 69.409 95.333 69.409C97.19 69.409 98.583 68.566 99.299 67.191L102.761 69.188C101.327 71.576 98.641 73.014 95.333 73.014C90.353 73.014 86.77 69.769 86.77 64.902C86.77 60.034 90.357 56.789 95.333 56.789C98.641 56.789 101.323 58.227 102.761 60.615L99.299 62.612C98.583 61.237 97.19 60.394 95.333 60.394C92.597 60.394 90.826 62.197 90.826 64.902ZM128 51.83V72.562H123.944V51.831L128 51.83ZM112.676 56.788C107.7 56.788 104.113 60.033 104.113 64.9C104.113 69.767 108.151 73.013 113.127 73.013C116.133 73.013 118.783 71.823 120.424 69.818L116.976 67.826C116.066 68.822 114.682 69.403 113.126 69.403C110.968 69.403 109.134 68.276 108.453 66.473H121.082C121.185 65.9537 121.238 65.4255 121.239 64.896C121.239 60.033 117.656 56.788 112.676 56.788ZM108.416 63.323C108.98 61.525 110.517 60.393 112.676 60.393C114.835 60.393 116.376 61.525 116.936 63.323H108.416ZM85.417 57.238V61.606C84.9492 61.4644 84.4637 61.39 83.975 61.385C81.357 61.385 79.468 63.188 79.468 65.892V72.562H75.412V57.24H79.468V61.387C79.468 59.097 82.132 57.24 85.418 57.24L85.417 57.238Z" fill="#8D7C60"/>
</svg>
