<svg width="128" height="128" viewBox="0 0 128 128" fill="none" xmlns="http://www.w3.org/2000/svg">
<path d="M67.3004 108.801H90.6004C100.7 108.801 108.9 100.601 108.9 90.5008V37.4008C108.9 35.4008 108.6 33.6008 108 31.8008H108.1C109.4 31.8008 110.5 33.9008 111 35.0008C111.5 36.0008 112.9 36.8008 114.2 37.4008V92.2008C114.2 104.301 104.4 114.101 92.3004 114.101H64.7004C65.4004 112.701 66.3004 110.901 67.3004 108.801ZM73.4004 13.8008C81.0004 14.0008 84.2004 16.2008 85.7004 19.2008H37.5004C27.4004 19.2008 19.2004 27.4008 19.2004 37.5008V90.6008C19.2004 100.701 27.4004 108.901 37.5004 108.901H41.3004C40.9004 110.001 40.5004 111.601 40.5004 112.601C40.5004 113.201 40.7004 113.701 40.9004 114.301H35.8004C23.7004 114.301 13.9004 104.501 13.9004 92.4008V35.7008C13.9004 23.6008 23.7004 13.8008 35.8004 13.8008H73.4004Z" fill="#A19073"/>
<path d="M89.8996 106.4H68.4996C71.7996 99.6 75.8996 90.9 79.5996 83.2L85.2996 93C86.5996 95.2 89.3996 96 91.5996 94.7C93.7996 93.4 94.5996 90.6 93.2996 88.4L84.3996 73C86.8996 67.8 88.5996 64.2 88.7996 63.7C89.6996 61.8 90.0996 59.4 91.1996 57.1C94.1996 51.3 100.7 37.3 103.4 34.7C104.3 33.9 104.9 33.2 105.5 32.8C106.1 34.5 106.4 36.2 106.4 38.1V89.8C106.4 99 98.9996 106.4 89.8996 106.4ZM95.1996 71.3H86.2996L91.5996 80.6H95.1996C97.7996 80.6 99.7996 78.5 99.7996 76C99.7996 73.4 97.7996 71.3 95.1996 71.3ZM21.5996 89.8V38.1C21.5996 28.9 28.9996 21.5 38.1996 21.5H86.5996C86.8996 22.6 87.0996 23.7 87.1996 24.9C87.3996 26.5 85.0996 31.6 84.7996 32.2C82.5996 36.6 77.9996 45.3 75.4996 49.7C74.8996 50.9 73.3996 52.7 73.2996 52.9C73.2996 52.9 73.1996 53 73.0996 53.2L70.8996 49.4L65.5996 58.7L67.7996 62.5C66.2996 65.1 64.5996 68.1 62.6996 71.2H32.7996C30.1996 71.2 28.1996 73.3 28.1996 75.8C28.1996 78.4 30.2996 80.4 32.7996 80.4H57.2996C50.8996 91.4 44.5996 102.3 42.3996 106.2H38.1996C29.0996 106.4 21.5996 99 21.5996 89.8ZM62.0996 34.3C60.7996 32.1 57.9996 31.3 55.7996 32.6C53.5996 33.9 52.7996 36.7 54.0996 38.9L57.3996 44.7L62.6996 35.4L62.0996 34.3ZM56.8996 68.8L74.1996 38.8C75.4996 36.6 74.6996 33.8 72.4996 32.5C70.2996 31.2 67.4996 32 66.1996 34.2L46.1996 68.8H56.8996ZM43.0996 92.9L48.7996 83H38.0996L34.9996 88.3C33.6996 90.5 34.4996 93.3 36.6996 94.6C38.8996 95.9 41.7996 95.1 43.0996 92.9Z" fill="#A19073"/>
<path d="M69.2008 9.3C69.2008 8.5 70.1008 7.9 72.1008 7.1C74.1008 6.3 77.2008 5.5 81.6008 5.5C94.5008 5.5 102.901 10.5 108.201 13.3C111.501 15.1 111.901 18 114.501 19.9C116.301 21.2 118.701 20.9 120.601 20.6H120.801C120.801 20.6 126.101 23.3 126.101 23.4C126.401 23.7 125.201 26.7 123.501 30.3C121.701 34 120.001 36.8 119.601 36.6C119.401 36.5 113.901 33.5 113.901 33.5C113.901 33.5 113.701 32.4 113.101 31.6C112.001 30.1 110.101 28.3 108.001 28.3C105.201 28.3 102.301 30.7 100.001 33.5C97.3008 36.6 90.1008 51.7 87.4008 57.4C87.2008 57.9 86.8008 60.1 86.4008 61C85.6008 62.8 61.1008 113.8 58.9008 118.3C58.1008 119.8 56.5008 120.5 54.5008 120.5C50.5008 120.5 43.9008 116.7 43.8008 112.6C43.8008 112 44.2008 110.3 44.5008 109.5C45.1008 108 75.8008 55.4 76.2008 54.7C76.3008 54.5 77.4008 53.3 78.1008 52.1C80.5008 47.6 86.2008 37.1 88.4008 32.8C88.7008 32.2 90.7008 27 90.6008 25.4C89.9008 18.3 88.1008 10.4 71.0008 9.9C70.4008 9.9 69.2008 9.6 69.2008 9.3Z" fill="#A19073"/>
</svg>
