<svg width="33" height="41" viewBox="0 0 33 41" fill="none" xmlns="http://www.w3.org/2000/svg">
<path d="M28.6167 17.7283C28.3503 17.7288 28.0949 17.8348 27.9065 18.0232C27.7182 18.2116 27.6121 18.4669 27.6117 18.7333V35.12H24.715L19.155 23.5533C19.9484 22.6567 20.2884 21.4117 20.03 20.22C19.9107 19.631 19.6536 19.0786 19.28 18.6079C18.9063 18.1372 18.4266 17.7615 17.88 17.5117V16.1583C17.8838 15.971 17.8502 15.7848 17.7813 15.6106C17.7123 15.4363 17.6094 15.2776 17.4785 15.1436C17.3475 15.0095 17.1912 14.9029 17.0187 14.8299C16.8461 14.7569 16.6607 14.719 16.4734 14.7183C16.2201 14.7182 15.9714 14.7861 15.7534 14.915C15.5358 15.0476 15.3574 15.2357 15.2367 15.4601C15.116 15.6845 15.0573 15.937 15.0667 16.1917V17.3917C14.2304 17.6953 13.5257 18.2805 13.0735 19.0468C12.6214 19.813 12.4498 20.7128 12.5884 21.5917C12.7064 22.3477 13.0496 23.0505 13.5734 23.6083L8.22336 35.12H3.32336C2.44656 35.1143 1.60747 34.7627 0.988563 34.1416C0.369654 33.5205 0.020978 32.6801 0.0183609 31.8033V8.86167C0.00836087 10.6983 1.49003 12.195 3.32836 12.205C3.40175 12.2052 3.47512 12.2029 3.54836 12.1983H28.1234C28.1234 12.1983 32.3484 11.835 32.8934 14.765C32.691 14.7855 32.5034 14.8801 32.3665 15.0305C32.2296 15.1809 32.1531 15.3766 32.1517 15.58C32.1517 16.765 31.1867 17.73 29.9817 17.73L28.6167 17.7283ZM25.2034 38.0617C25.3911 38.4485 25.4176 38.894 25.2769 39.3003C25.1363 39.7066 24.8401 40.0404 24.4534 40.2283C24.2438 40.3277 24.0153 40.3806 23.7834 40.3833C23.6026 40.3882 23.4224 40.3629 23.25 40.3083C23.21 40.295 23.1734 40.2733 23.1334 40.2567C22.9979 40.2008 22.8706 40.1268 22.755 40.0367C22.7134 40.0033 22.6717 39.9733 22.635 39.9367C22.4914 39.8059 22.3728 39.65 22.285 39.4767L20.1917 35.12L17.595 29.7117C17.4909 29.4903 17.3259 29.3031 17.1193 29.1721C16.9127 29.041 16.673 28.9715 16.4284 28.9717H16.425C16.1786 28.9724 15.9374 29.0421 15.7285 29.1729C15.5197 29.3037 15.3516 29.4903 15.2434 29.7117L12.7267 35.12L10.6717 39.53C10.5564 39.7952 10.3723 40.0246 10.1384 40.1946C9.90457 40.3646 9.62947 40.4689 9.34169 40.4967C9.23669 40.505 9.13503 40.4933 9.03336 40.4817C8.97669 40.4767 8.91836 40.4733 8.86169 40.4617C8.78169 40.445 8.70336 40.415 8.62503 40.3867C8.57503 40.3667 8.52503 40.3533 8.47503 40.33C8.39316 40.2867 8.31511 40.2365 8.24169 40.18C8.20669 40.155 8.16669 40.135 8.13169 40.1067C8.02507 40.0163 7.93042 39.9127 7.85003 39.7983C7.68684 39.5596 7.59005 39.2817 7.56955 38.9933C7.54905 38.7048 7.60558 38.4161 7.73336 38.1567L9.14336 35.12L14.59 23.4017C13.9572 22.9351 13.5333 22.2382 13.41 21.4617C13.1517 19.8283 14.265 18.295 15.8984 18.035V16.1583C15.894 16.0536 15.9177 15.9496 15.9669 15.857C16.0161 15.7644 16.0891 15.6867 16.1784 15.6317C16.2677 15.5787 16.3695 15.5508 16.4734 15.5508C16.5772 15.5508 16.6791 15.5787 16.7684 15.6317C16.8573 15.6869 16.93 15.7647 16.9789 15.8573C17.0278 15.9498 17.0512 16.0537 17.0467 16.1583V18.09L17.0684 18.1C17.6033 18.2473 18.0871 18.5399 18.466 18.9452C18.8449 19.3506 19.1041 19.853 19.215 20.3967C19.3338 20.9431 19.2961 21.5119 19.1062 22.0378C18.9164 22.5637 18.5821 23.0255 18.1417 23.37L23.79 35.12L25.2034 38.0617ZM18.14 21.01C18.1418 20.7691 18.096 20.5302 18.0054 20.307C17.9148 20.0838 17.7811 19.8806 17.6119 19.7091C17.4427 19.5376 17.2414 19.4012 17.0195 19.3075C16.7975 19.2139 16.5593 19.1649 16.3184 19.1633C15.8284 19.1628 15.3579 19.355 15.0084 19.6983C14.6666 20.0397 14.4731 20.502 14.47 20.985C14.4683 21.2259 14.514 21.4648 14.6046 21.688C14.6952 21.9112 14.829 22.1144 14.9981 22.2859C15.1673 22.4574 15.3686 22.5938 15.5906 22.6875C15.8126 22.7812 16.0508 22.8301 16.2917 22.8317H16.305C16.7895 22.8321 17.2545 22.6408 17.5984 22.2994C17.9422 21.9581 18.1369 21.4945 18.14 21.01ZM16.4284 29.805C16.3401 29.8043 16.2533 29.8281 16.1777 29.8737C16.1021 29.9193 16.0406 29.9849 16 30.0633L13.645 35.12H19.2684L16.84 30.065C16.8029 29.9872 16.7446 29.9216 16.6717 29.8756C16.5989 29.8296 16.5145 29.8051 16.4284 29.805ZM30 18.5617H28.6167C28.5712 18.5617 28.5275 18.5798 28.4953 18.6119C28.4631 18.6441 28.445 18.6878 28.445 18.7333V40.25C28.4449 40.2936 28.4614 40.3356 28.4911 40.3674C28.5208 40.3993 28.5616 40.4187 28.605 40.4217H30.0117C30.8009 40.4186 31.5567 40.1029 32.1137 39.5438C32.6707 38.9846 32.9834 38.2275 32.9834 37.4383V15.5783C32.9834 16.3696 32.669 17.1284 32.1096 17.6879C31.5501 18.2474 30.7913 18.5617 30 18.5617ZM0.850027 8.86167V8.89167C0.855684 9.54721 1.11861 10.1743 1.58217 10.6379C2.04572 11.1014 2.67282 11.3643 3.32836 11.37C3.40113 11.3679 3.47391 11.3663 3.54669 11.365H5.42836C5.74025 9.19992 6.69076 7.17704 8.15836 5.555H3.33169C2.59779 5.55888 1.88585 5.80583 1.30718 6.25725C0.728508 6.70866 0.315725 7.3391 0.133361 8.05C0.536694 8.11 0.850027 8.44167 0.850027 8.86M11.4134 4.02833L9.68336 1.04667C9.65163 0.991378 9.63494 0.928745 9.63494 0.865C9.63494 0.801255 9.65163 0.738622 9.68336 0.683333C9.71706 0.630263 9.7629 0.585964 9.81709 0.554088C9.87128 0.522213 9.93227 0.503674 9.99503 0.5C10.0584 0.500857 10.1205 0.518213 10.1752 0.550361C10.2298 0.582508 10.2751 0.628337 10.3067 0.683333L12.0567 3.70833C13.4503 3.08242 14.9607 2.75881 16.4884 2.75881C18.0161 2.75881 19.5264 3.08242 20.92 3.70833L22.66 0.683333C22.7152 0.615626 22.7927 0.569929 22.8787 0.554534C22.9646 0.53914 23.0533 0.555068 23.1285 0.599428C23.2037 0.643788 23.2605 0.713641 23.2886 0.79631C23.3167 0.878979 23.3143 0.968987 23.2817 1.05L21.565 4.03333C22.9276 4.78182 24.1011 5.83177 24.996 7.103C25.8908 8.37424 26.4834 9.83315 26.7284 11.3683L6.25003 11.3667C6.49507 9.83193 7.08747 8.37345 7.98202 7.10253C8.87657 5.83161 10.0496 4.78184 11.4117 4.03333M20.3734 8.4C20.376 8.51273 20.4007 8.62384 20.4463 8.72699C20.4918 8.83013 20.5573 8.92329 20.6388 9.00115C20.7204 9.079 20.8165 9.14002 20.9217 9.18071C21.0268 9.22141 21.139 9.24099 21.2517 9.23833C21.3646 9.23855 21.4763 9.21651 21.5807 9.17348C21.685 9.13044 21.7798 9.06725 21.8597 8.98752C21.9396 8.9078 22.003 8.8131 22.0462 8.70886C22.0894 8.60461 22.1117 8.49286 22.1117 8.38C22.1111 8.2086 22.0598 8.0412 21.9642 7.89891C21.8687 7.75661 21.7331 7.64578 21.5747 7.58037C21.4163 7.51497 21.242 7.49792 21.0739 7.53136C20.9058 7.56481 20.7514 7.64726 20.63 7.76833C20.5462 7.8507 20.4801 7.94941 20.4359 8.05836C20.3918 8.1673 20.3705 8.28415 20.3734 8.40167M10.845 8.39167C10.8461 8.50439 10.8694 8.61579 10.9135 8.71951C10.9577 8.82323 11.0218 8.91724 11.1023 8.99617C11.1828 9.0751 11.278 9.13741 11.3826 9.17953C11.4871 9.22165 11.599 9.24277 11.7117 9.24167C11.8251 9.24325 11.9376 9.22209 12.0427 9.17944C12.1477 9.13679 12.2432 9.0735 12.3234 8.99333C12.4184 8.91672 12.4963 8.82095 12.5519 8.71227C12.6075 8.60358 12.6396 8.48441 12.6461 8.3625C12.6527 8.24058 12.6335 8.11867 12.5898 8.00466C12.5461 7.89066 12.4789 7.78713 12.3926 7.7008C12.3062 7.61448 12.2027 7.54728 12.0887 7.5036C11.9747 7.45991 11.8528 7.4407 11.7309 7.44723C11.609 7.45376 11.4898 7.48587 11.3811 7.54148C11.2724 7.59709 11.1766 7.67495 11.1 7.77C11.0179 7.85115 10.953 7.94803 10.9092 8.05484C10.8654 8.16166 10.8435 8.27622 10.845 8.39167Z" fill="#8D7C60"/>
</svg>
