<svg width="128" height="128" viewBox="0 0 128 128" fill="none" xmlns="http://www.w3.org/2000/svg">
<path d="M25.1001 17.6992L38.5001 17.7992C33.6001 22.6992 30.7001 28.9992 29.7001 36.0992L24.6001 35.9992C19.1001 35.7992 14.8001 31.6992 14.9001 26.6992C14.9001 21.5992 19.4001 17.6992 25.1001 17.6992ZM65.3002 94.8992C66.2002 97.0992 72.2001 109.299 72.2001 109.299H55.1001C55.1001 109.299 60.6001 97.7992 61.8001 94.8992C62.8001 92.6992 64.3002 92.5992 65.3002 94.8992Z" fill="#A19073"/>
<path d="M114.9 47.9003C113.8 52.2003 109.4 55.4003 104 55.4003H99.0004C98.7004 55.5003 98.5004 55.7003 98.6004 56.0003V109.3H89.5004L72.0004 73.1003C73.8004 71.1003 74.9004 68.4003 74.9004 65.5003C74.9004 60.7003 72.1004 56.4003 67.9004 54.7003V49.8003C67.9004 47.7003 66.1004 46.2003 64.0004 46.2003H63.8004C61.7004 46.2003 59.9004 48.0003 59.9004 50.1003V54.7003C55.3004 56.2003 51.9004 60.5003 51.9004 65.7003C51.9004 68.7003 53.1004 71.5003 55.0004 73.5003L38.0004 109.4H23.1004C17.4004 109.4 12.9004 104.8 12.9004 99.1003V29.7003C12.9004 29.7003 12.9004 29.1003 13.0004 29.7003C13.8004 34.5003 18.0004 38.2003 23.1004 38.3003H100C99.9004 38.3003 114.6 37.0003 114.9 47.9003Z" fill="#A19073"/>
<path d="M63.2996 59.8C66.3996 59.8 68.9996 62.4 68.8996 65.6C68.8996 68.7 66.2996 71.3 63.0996 71.2C59.9996 71.2 57.4996 68.6 57.4996 65.5C57.4996 64 58.0996 62.6 59.1996 61.5C60.3996 60.4 61.7996 59.8 63.2996 59.8ZM65.5996 56.5V50.5C65.5996 49.8 65.2996 49.2 64.6996 48.9C63.7996 48.4 62.6996 48.7 62.1996 49.6C61.9996 49.9 61.8996 50.2 61.9996 50.6V56.4C56.9996 57.2 53.4996 61.9 54.2996 67V67.1C54.6996 69.5 55.9996 71.7 57.9996 73.1L36.6996 118.8C35.8996 120.4 35.9996 122.4 37.0996 123.9C38.6996 126.2 41.7996 126.8 44.0996 125.2C44.8996 124.7 45.4996 123.9 45.8996 123.1L59.9996 92.5C60.8996 90.5 63.2996 89.6 65.3996 90.6C66.1996 91 66.8996 91.7 67.2996 92.5L81.7996 122.8C82.9996 125.3 85.9996 126.3 88.4996 125.1C90.9996 123.9 91.9996 120.9 90.7996 118.4L68.9996 72.9C72.9996 69.7 73.6996 63.8 70.4996 59.8C69.2996 58.2 67.5996 57.1 65.5996 56.5ZM79.5996 12.9H79.4996L84.7996 3.7C85.0996 3.2 84.8996 2.6 84.4996 2.2C83.9996 2 83.4996 2.1 83.1996 2.5L77.5996 12C68.8996 8.1 58.8996 8.1 50.0996 12L44.6996 2.6C44.4996 2.3 44.0996 2 43.6996 2C43.2996 2 42.8996 2.2 42.6996 2.6C42.4996 3 42.4996 3.4 42.6996 3.7L48.0996 12.9C39.2996 17.8 33.4996 26.2 32.0996 36H95.8996C94.3996 26.2 88.3996 17.8 79.5996 12.9ZM51.1996 28L50.7996 28.4C50.2996 28.9 49.5996 29.2 48.8996 29.2H48.9996C47.4996 29.2 46.2996 28 46.2996 26.6V26.5C46.2996 25.8 46.5996 25.1 47.0996 24.6C47.9996 23.5 49.6996 23.3 50.7996 24.2C52.0996 25.1 52.1996 26.8 51.1996 28ZM78.5996 29C77.0996 29.1 75.8996 27.9 75.8996 26.4V26.3C75.8996 25.6 76.1996 24.9 76.6996 24.4C77.6996 23.4 79.3996 23.4 80.4996 24.4C80.9996 24.9 81.2996 25.6 81.2996 26.3C81.2996 27.9 80.0996 29 78.5996 29ZM105.7 58H101.5C101.3 58.1 101.1 58.3 101.1 58.6V125.1C101.1 125.4 101.3 125.6 101.6 125.6H106C111.1 125.6 115.2 121.4 115.2 116.4C115.2 116.4 115.1 55.3 115.2 53C115.3 50.6 114.7 52.3 114.5 52.8C113 56 109.7 58.1 105.9 58.1H105.7V58Z" fill="#A19073"/>
<path d="M63.2996 68.7008C65.0669 68.7008 66.4996 67.2681 66.4996 65.5008C66.4996 63.7335 65.0669 62.3008 63.2996 62.3008C61.5323 62.3008 60.0996 63.7335 60.0996 65.5008C60.0996 67.2681 61.5323 68.7008 63.2996 68.7008Z" fill="#A19073"/>
</svg>
