<svg width="10" height="10" viewBox="0 0 10 10" fill="none" xmlns="http://www.w3.org/2000/svg">
<path d="M0.500301 10H9.50056C9.59168 9.99962 9.681 9.96605 9.7589 9.90291C9.8368 9.83977 9.90034 9.74944 9.94267 9.64166C9.98499 9.53387 10.0045 9.41271 9.99912 9.29121C9.99373 9.16971 9.96363 9.05248 9.91207 8.95213L5.41194 0.269981C5.22544 -0.0899938 4.77642 -0.0899938 4.58942 0.269981L0.0892894 8.95213C0.0372003 9.05227 0.00665413 9.16956 0.00096949 9.29127C-0.00471515 9.41297 0.0146792 9.53442 0.0570455 9.64243C0.0994117 9.75045 0.163129 9.84088 0.241276 9.90392C0.319422 9.96696 0.409008 10.0002 0.500301 10Z" fill="#EAE3D7"/>
</svg>
