<svg width="35" height="39" viewBox="0 0 35 39" fill="none" xmlns="http://www.w3.org/2000/svg">
<path d="M34.2188 9.96875L34.3125 9.90625C34.125 9.5625 33.8438 9.25 33.5625 9.09375L18.4688 0.40625C18.2188 0.25 17.875 0.1875 17.5 0.1875C17.125 0.1875 16.7813 0.28125 16.5313 0.40625L1.53125 9.125C1 9.4375 0.625 10.2188 0.625 10.8125V28.2188C0.625 28.5625 0.6875 28.9375 0.90625 29.2813L0.84375 29.3125C1 29.5625 1.21875 29.7813 1.4375 29.9063L16.5 38.625C16.75 38.7813 17.0938 38.8438 17.4688 38.8438C17.8438 38.8438 18.1875 38.75 18.4375 38.625L33.4375 29.9063C33.9688 29.5938 34.3438 28.8125 34.3438 28.2188V10.7812C34.375 10.5312 34.3438 10.25 34.2188 9.96875ZM17.5 31.8438C10.6875 31.8438 5.15625 26.3125 5.15625 19.5C5.15625 12.6875 10.6875 7.15625 17.5 7.15625C22.0938 7.15625 26.0938 9.6875 28.2188 13.4063L24.1563 15.75C22.8438 13.4063 20.3438 11.8438 17.5 11.8438C13.2813 11.8438 9.84375 15.2813 9.84375 19.5C9.84375 23.7188 13.2813 27.1563 17.5 27.1563C20.3438 27.1563 22.8438 25.5938 24.1563 23.2813L28.1875 25.6563C26.0625 29.3438 22.0625 31.8438 17.5 31.8438ZM33.4375 18.875H32.4375L32.1563 20.125H33.4375V21.6875H31.875L31.5 23.5625H29.9688L30.3438 21.6875H29.1563L28.7813 23.5625H27.2813L27.6563 21.6875H26.875V20.125H27.9688L28.25 18.875H26.875V17.3125H28.5313L28.9063 15.4375H30.4375L30.0625 17.3125H31.25L31.625 15.4375H33.125L32.75 17.3125H33.4375V18.875ZM29.4688 20.125H30.6563L30.9375 18.875H29.75L29.4688 20.125Z" fill="#8D7C60"/>
</svg>
