<svg width="128" height="128" viewBox="0 0 128 128" fill="none" xmlns="http://www.w3.org/2000/svg">
<path d="M117.5 33.4992L117.8 33.2992C117.2 32.1992 116.3 31.1992 115.4 30.6992L67.1 2.89922C66.3 2.39922 65.2 2.19922 64 2.19922C62.8 2.19922 61.7 2.49922 60.9 2.89922L12.9 30.7992C11.2 31.7992 10 34.2992 10 36.1992V91.8992C10 92.9992 10.2 94.1992 10.9 95.2992L10.7 95.3992C11.2 96.1992 11.9 96.8992 12.6 97.2992L60.8 125.199C61.6 125.699 62.7 125.899 63.9 125.899C65.1 125.899 66.2 125.599 67 125.199L115 97.2992C116.7 96.2992 117.9 93.7992 117.9 91.8992V36.0992C118 35.2992 117.9 34.3992 117.5 33.4992ZM64 103.499C42.2 103.499 24.5 85.7992 24.5 63.9992C24.5 42.1992 42.2 24.4992 64 24.4992C78.7 24.4992 91.5 32.5992 98.3 44.4992L85.3 51.9992C81.1 44.4992 73.1 39.4992 64 39.4992C50.5 39.4992 39.5 50.4992 39.5 63.9992C39.5 77.4992 50.5 88.4992 64 88.4992C73.1 88.4992 81.1 83.4992 85.3 76.0992L98.2 83.6992C91.4 95.4992 78.6 103.499 64 103.499ZM115 61.9992H111.8L110.9 65.9992H115V70.9992H110L108.8 76.9992H103.9L105.1 70.9992H101.3L100.1 76.9992H95.3L96.5 70.9992H94V65.9992H97.5L98.4 61.9992H94V56.9992H99.3L100.5 50.9992H105.4L104.2 56.9992H108L109.2 50.9992H114L112.8 56.9992H115V61.9992ZM102.3 65.9992H106.1L107 61.9992H103.2L102.3 65.9992Z" fill="#A19073"/>
</svg>
