<svg width="128" height="128" viewBox="0 0 128 128" fill="none" xmlns="http://www.w3.org/2000/svg">
<path d="M40.5309 77.8191V50.7391H42.0009V54.9991C42.1745 54.8104 42.3349 54.61 42.4809 54.3991C43.0815 53.1523 44.0252 52.1024 45.2012 51.3727C46.3772 50.643 47.7369 50.2637 49.1209 50.2791C52.4709 50.1791 55.1909 51.4191 56.7909 54.3991C57.8089 56.2504 58.3692 58.3183 58.4248 60.4303C58.4805 62.5422 58.03 64.6369 57.1109 66.5391C55.6209 69.8791 51.9409 71.5391 48.0009 70.9291C46.7748 70.8247 45.5943 70.4149 44.5672 69.7372C43.5402 69.0595 42.6991 68.1353 42.1209 67.0491V77.8191H40.5309ZM42.0009 60.3191C42.1309 61.6391 42.1809 62.5791 42.3309 63.4991C42.9109 67.1191 45.0509 69.2691 48.4109 69.6591C49.9885 69.9185 51.6073 69.6227 52.9913 68.8222C54.3754 68.0217 55.4389 66.766 56.0009 65.2691C56.6465 63.7295 56.9573 62.0701 56.9125 60.4012C56.8676 58.7322 56.4683 57.0919 55.7409 55.5891C55.1411 54.2475 54.121 53.1375 52.8348 52.4267C51.5485 51.716 50.0659 51.443 48.6109 51.6491C47.2447 51.7481 45.9434 52.2703 44.8878 53.1431C43.8322 54.0159 43.0748 55.1959 42.7209 56.5191C42.4077 57.7708 42.1673 59.0396 42.0009 60.3191ZM88.4109 63.9991C88.1881 65.9058 87.2805 67.6666 85.8568 68.9542C84.4331 70.2418 82.5902 70.9685 80.6709 70.9991C74.5109 71.3091 71.6209 67.2191 71.1609 62.4991C70.8416 59.9359 71.2578 57.3348 72.3609 54.9991C73.1291 53.397 74.3871 52.081 75.953 51.2414C77.5189 50.4018 79.3113 50.0823 81.0709 50.3291C82.7436 50.4709 84.3294 51.1353 85.6037 52.2283C86.8779 53.3213 87.776 54.7874 88.1709 56.4191C88.4838 57.9052 88.7142 59.4075 88.8609 60.9191H72.6709C72.3709 65.1991 74.6709 68.6391 77.9309 69.4691C81.9909 70.4691 85.4609 68.7091 86.7209 64.8491C87.0009 63.8591 87.5109 63.7191 88.4109 63.9991ZM72.6709 59.5491H87.1409C87.0509 54.9891 84.2109 51.6891 80.3609 51.6391C76.0009 51.5691 72.8609 54.7491 72.6709 59.5491ZM91.3909 64.0991H92.8109C92.8633 65.144 93.2028 66.1542 93.7921 67.0186C94.3813 67.8831 95.1975 68.5684 96.1509 68.9991C97.3481 69.5379 98.6513 69.7997 99.9637 69.7651C101.276 69.7304 102.564 69.4003 103.731 68.7991C104.367 68.5124 104.9 68.0375 105.257 67.4384C105.615 66.8394 105.78 66.1451 105.731 65.4491C105.767 64.7779 105.584 64.1131 105.209 63.5555C104.833 62.9979 104.286 62.5779 103.651 62.3591C102.091 61.7791 100.431 61.4591 98.8409 60.9491C97.1865 60.478 95.5688 59.8864 94.0009 59.1791C91.4409 57.9291 91.2809 53.0591 94.1809 51.5191C95.6658 50.6812 97.3369 50.2284 99.0418 50.2022C100.747 50.176 102.431 50.5772 103.941 51.3691C104.856 51.8747 105.594 52.647 106.059 53.5832C106.523 54.5194 106.692 55.575 106.541 56.6091H105.321C105.321 56.5491 105.211 56.4991 105.211 56.4391C105.061 52.5491 101.801 51.3491 98.3009 51.6891C97.256 51.818 96.2412 52.1258 95.3009 52.5991C94.7359 52.8575 94.2651 53.2849 93.9534 53.8222C93.6418 54.3596 93.5046 54.9805 93.5609 55.5991C93.5626 56.2181 93.7557 56.8213 94.1138 57.3262C94.4719 57.8311 94.9773 58.2128 95.5609 58.4191C97.1009 58.9791 98.7109 59.3391 100.291 59.7791C101.561 60.1291 102.881 60.3591 104.111 60.7791C104.979 61.0637 105.74 61.6052 106.294 62.332C106.847 63.0588 107.167 63.9366 107.211 64.8491C107.359 65.849 107.189 66.8702 106.724 67.7678C106.259 68.6653 105.523 69.3936 104.621 69.8491C101.281 71.7391 95.7809 71.2391 93.3309 68.8491C92.7099 68.2247 92.2188 67.4834 91.8858 66.6681C91.5529 65.8529 91.3846 64.9798 91.3909 64.0991ZM125.211 56.6091H123.881C123.881 56.4291 123.811 56.2691 123.791 56.1191C123.769 55.1222 123.406 54.1629 122.761 53.402C122.117 52.641 121.231 52.1246 120.251 51.9391C118.402 51.4087 116.43 51.5036 114.641 52.2091C113.934 52.4119 113.311 52.838 112.866 53.4237C112.421 54.0095 112.177 54.7235 112.171 55.4591C112.146 56.1816 112.371 56.8906 112.808 57.4663C113.246 58.042 113.868 58.4492 114.571 58.6191C116.571 59.2391 118.621 59.6191 120.651 60.1791C121.309 60.337 121.957 60.534 122.591 60.7691C123.538 61.108 124.361 61.7248 124.952 62.5389C125.543 63.3529 125.875 64.3263 125.904 65.332C125.934 66.3376 125.659 67.3286 125.116 68.1755C124.573 69.0225 123.787 69.6859 122.861 70.0791C121.45 70.72 119.92 71.059 118.37 71.0745C116.821 71.09 115.285 70.7816 113.861 70.1691C112.69 69.6642 111.702 68.8127 111.03 67.7292C110.358 66.6458 110.033 65.3824 110.101 64.1091H111.401C111.641 65.2694 112.161 66.3536 112.915 67.2678C113.669 68.182 114.634 68.8986 115.728 69.3556C116.821 69.8126 118.009 69.9962 119.189 69.8905C120.369 69.7849 121.506 69.3931 122.501 68.7491C123.107 68.4343 123.61 67.9524 123.95 67.3604C124.29 66.7684 124.454 66.0912 124.421 65.4091C124.451 64.7376 124.261 64.0745 123.881 63.5204C123.5 62.9664 122.949 62.5517 122.311 62.3391C120.751 61.7591 119.091 61.4491 117.501 60.9391C115.837 60.4753 114.209 59.8904 112.631 59.1891C110.131 57.9591 109.931 53.1291 112.781 51.5891C114.284 50.7161 115.988 50.2471 117.726 50.2278C119.465 50.2085 121.179 50.6396 122.701 51.4791C123.571 51.9989 124.272 52.7605 124.718 53.6713C125.164 54.5821 125.335 55.6028 125.211 56.6091ZM38.1009 70.5091C37.5773 70.7074 36.9992 70.707 36.4759 70.508C35.9527 70.309 35.5204 69.9252 35.2609 69.4291C33.6309 66.9891 31.8309 64.6591 30.1009 62.2791L29.3509 61.2791C27.2909 64.0391 25.2309 66.6891 23.3509 69.4391C23.1059 69.9132 22.697 70.2821 22.2003 70.4771C21.7036 70.6721 21.1529 70.68 20.6509 70.4991L28.3809 60.1291L21.1909 50.7591C21.7084 50.5723 22.2746 50.5697 22.7938 50.7519C23.3131 50.9341 23.7535 51.2898 24.0409 51.7591C25.7109 54.1991 27.5609 56.5291 29.4009 58.9991C31.2509 56.5491 33.0809 54.2091 34.7909 51.7891C35.0372 51.3228 35.4463 50.9632 35.9404 50.7788C36.4346 50.5944 36.9793 50.5981 37.4709 50.7891L34.6809 54.4891C33.4309 56.1391 32.2009 57.7991 30.9009 59.4091C30.7961 59.5029 30.7123 59.6178 30.6549 59.7461C30.5976 59.8745 30.5679 60.0135 30.5679 60.1541C30.5679 60.2947 30.5976 60.4338 30.6549 60.5621C30.7123 60.6905 30.7961 60.8053 30.9009 60.8991C33.2909 64.0691 35.6609 67.2491 38.1009 70.5091ZM70.9209 50.6591V52.0591C69.9095 51.9928 68.8954 52.1393 67.9441 52.4891C66.9928 52.8389 66.1254 53.3843 65.3979 54.0901C64.6705 54.7959 64.0991 55.6464 63.7206 56.5867C63.3422 57.527 63.1651 58.5362 63.2009 59.5491V70.5491H61.7709V50.7391H63.1709V54.7991C64.9009 51.8391 67.5709 50.7391 70.9209 50.6591ZM2.13086 59.9991C2.34086 58.9991 2.47086 57.9091 2.76086 56.8891C4.49086 50.7391 11.5409 48.1791 16.3909 51.9891C19.2309 54.2191 19.9409 57.3791 19.8009 60.9391H3.80086C3.54086 67.2991 8.13086 71.1391 14.0009 69.1791C14.9531 68.8385 15.8054 68.2662 16.4811 67.5137C17.1567 66.7613 17.6344 65.8524 17.8709 64.8691C18.1809 63.8691 18.6809 63.6991 19.6309 63.9891C19.4744 65.2065 19.0439 66.3726 18.3719 67.3997C17.6999 68.4268 16.8037 69.2882 15.7509 69.9191C14.0113 70.8704 12.0154 71.2473 10.0487 70.9958C8.082 70.7444 6.24516 69.8775 4.80086 68.5191C3.37202 66.9126 2.50806 64.8827 2.34086 62.7391C2.34086 62.3991 2.21086 62.0591 2.14086 61.7391C2.13419 61.1458 2.13086 60.5658 2.13086 59.9991ZM3.82086 59.5691H18.2909C18.2009 54.9591 15.2909 51.6891 11.4109 51.6591C7.09086 51.5991 4.00086 54.7991 3.81086 59.5491L3.82086 59.5691Z" fill="#A19073"/>
</svg>
