<svg width="128" height="128" viewBox="0 0 128 128" fill="none" xmlns="http://www.w3.org/2000/svg">
<path fill-rule="evenodd" clip-rule="evenodd" d="M63.9993 5.10352C30.6523 5.10352 3.61133 32.1385 3.61133 65.4915C3.61133 92.1735 20.9143 114.809 44.9083 122.795C47.9253 123.355 49.0333 121.485 49.0333 119.89C49.0333 118.45 48.9773 113.693 48.9513 108.647C32.1513 112.3 28.6063 101.522 28.6063 101.522C25.8593 94.5415 21.9013 92.6855 21.9013 92.6855C16.4213 88.9375 22.3143 89.0155 22.3143 89.0155C28.3773 89.4405 31.5713 95.2385 31.5713 95.2385C36.9573 104.469 45.6983 101.801 49.1443 100.259C49.6863 96.3555 51.2513 93.6905 52.9783 92.1825C39.5653 90.6575 25.4643 85.4785 25.4643 62.3395C25.4643 55.7465 27.8243 50.3595 31.6873 46.1295C31.0593 44.6095 28.9923 38.4675 32.2713 30.1495C32.2713 30.1495 37.3413 28.5265 48.8813 36.3395C53.6993 35.0005 58.8663 34.3275 63.9993 34.3045C69.1293 34.3275 74.2993 34.9985 79.1263 36.3375C90.6523 28.5245 95.7163 30.1475 95.7163 30.1475C99.0033 38.4645 96.9363 44.6075 96.3093 46.1275C100.181 50.3575 102.524 55.7445 102.524 62.3375C102.524 85.5315 88.3973 90.6375 74.9503 92.1335C77.1173 94.0075 79.0473 97.6835 79.0473 103.317C79.0473 111.397 78.9773 117.9 78.9773 119.889C78.9773 121.496 80.0653 123.379 83.1253 122.786C107.105 114.792 124.388 92.1635 124.388 65.4915C124.387 32.1405 97.3493 5.10352 63.9993 5.10352Z" fill="currentColor"/>
<path d="M26.4836 91.8074C26.3506 92.1074 25.8786 92.1974 25.4486 91.9924C25.0086 91.7964 24.7636 91.3874 24.9056 91.0864C25.0356 90.7764 25.5086 90.6914 25.9456 90.8984C26.3856 91.0954 26.6356 91.5084 26.4826 91.8084L26.4836 91.8074ZM28.9296 94.5364C28.6426 94.8034 28.0796 94.6794 27.6976 94.2564C27.3016 93.8364 27.2276 93.2734 27.5206 93.0024C27.8186 92.7364 28.3646 92.8624 28.7606 93.2824C29.1546 93.7084 29.2326 94.2664 28.9306 94.5374L28.9296 94.5364ZM31.3116 98.0134C30.9416 98.2714 30.3356 98.0304 29.9616 97.4934C29.5916 96.9554 29.5916 96.3104 29.9716 96.0534C30.3446 95.7954 30.9416 96.0284 31.3216 96.5604C31.6896 97.1054 31.6896 97.7514 31.3116 98.0134ZM34.5726 101.374C34.2426 101.739 33.5366 101.641 33.0206 101.144C32.4936 100.657 32.3466 99.9644 32.6776 99.6004C33.0136 99.2344 33.7226 99.3364 34.2416 99.8304C34.7686 100.316 34.9276 101.01 34.5746 101.373L34.5726 101.374ZM39.0726 103.325C38.9256 103.798 38.2476 104.013 37.5626 103.811C36.8796 103.604 36.4326 103.051 36.5726 102.573C36.7126 102.096 37.3956 101.873 38.0846 102.088C38.7676 102.294 39.2146 102.844 39.0726 103.325ZM44.0156 103.686C44.0326 104.184 43.4526 104.596 42.7356 104.606C42.0126 104.623 41.4276 104.219 41.4206 103.729C41.4206 103.226 41.9886 102.819 42.7106 102.805C43.4276 102.792 44.0166 103.192 44.0166 103.685L44.0156 103.686ZM48.6136 102.904C48.6996 103.389 48.2006 103.888 47.4876 104.021C46.7876 104.151 46.1376 103.849 46.0476 103.368C45.9616 102.87 46.4696 102.371 47.1696 102.242C47.8836 102.119 48.5236 102.411 48.6136 102.904Z" fill="currentColor"/>
</svg>
