<svg width="20" height="21" viewBox="0 0 20 21" fill="none" xmlns="http://www.w3.org/2000/svg">
<path d="M10 0.5C8.68678 0.5 7.38642 0.765079 6.17317 1.2801C4.95991 1.79513 3.85752 2.55001 2.92893 3.50165C1.05357 5.42357 0 8.03026 0 10.7483C0 15.278 2.87 19.1211 6.84 20.4841C7.34 20.5661 7.5 20.2484 7.5 19.9717V18.2398C4.73 18.8547 4.14 16.8665 4.14 16.8665C3.68 15.6777 3.03 15.36 3.03 15.36C2.12 14.7246 3.1 14.7451 3.1 14.7451C4.1 14.8168 4.63 15.8007 4.63 15.8007C5.5 17.3584 6.97 16.8972 7.54 16.6513C7.63 15.9851 7.89 15.5342 8.17 15.278C5.95 15.0218 3.62 14.1404 3.62 10.2359C3.62 9.0983 4 8.1862 4.65 7.45858C4.55 7.20237 4.2 6.13655 4.75 4.75303C4.75 4.75303 5.59 4.47633 7.5 5.79836C8.29 5.57289 9.15 5.46016 10 5.46016C10.85 5.46016 11.71 5.57289 12.5 5.79836C14.41 4.47633 15.25 4.75303 15.25 4.75303C15.8 6.13655 15.45 7.20237 15.35 7.45858C16 8.1862 16.38 9.0983 16.38 10.2359C16.38 14.1507 14.04 15.0115 11.81 15.2678C12.17 15.5855 12.5 16.2106 12.5 17.1637V19.9717C12.5 20.2484 12.66 20.5764 13.17 20.4841C17.14 19.1109 20 15.278 20 10.7483C20 9.40245 19.7413 8.0698 19.2388 6.82643C18.7362 5.58305 17.9997 4.45329 17.0711 3.50165C16.1425 2.55001 15.0401 1.79513 13.8268 1.2801C12.6136 0.765079 11.3132 0.5 10 0.5Z" fill="#8D7C60"/>
</svg>
