<svg width="31" height="31" viewBox="0 0 31 31" fill="none" xmlns="http://www.w3.org/2000/svg">
<path d="M5.5 0.5C4.17392 0.5 2.90215 1.02678 1.96447 1.96447C1.02678 2.90215 0.5 4.17392 0.5 5.5V25.5C0.5 26.8261 1.02678 28.0979 1.96447 29.0355C2.90215 29.9732 4.17392 30.5 5.5 30.5H25.5C26.8261 30.5 28.0979 29.9732 29.0355 29.0355C29.9732 28.0979 30.5 26.8261 30.5 25.5V5.5C30.5 4.17392 29.9732 2.90215 29.0355 1.96447C28.0979 1.02678 26.8261 0.5 25.5 0.5H5.5ZM17.7233 22.2583C18.9233 23.225 20.12 23.7 21.3167 23.6883C22.05 23.6883 22.6133 23.555 23.0033 23.285C23.1854 23.1668 23.3336 23.0032 23.4333 22.8103C23.5329 22.6174 23.5806 22.4019 23.5717 22.185C23.5741 21.9484 23.5246 21.7142 23.4267 21.4988C23.3288 21.2834 23.1848 21.0921 23.005 20.9383C22.6133 20.5967 21.8733 20.255 20.785 19.9117C19.4783 19.5333 18.4683 19.045 17.76 18.445C17.0633 17.845 16.71 17.0083 16.6967 15.9333C16.6967 14.9183 17.1367 14.07 18.0167 13.385C18.8733 12.7017 19.9667 12.3583 21.3 12.3583C23.1567 12.3583 24.6483 12.81 25.7717 13.715L24.4883 15.7133C24.0263 15.3539 23.4962 15.092 22.93 14.9433C22.4212 14.7732 21.8897 14.6805 21.3533 14.6683C20.72 14.6683 20.2117 14.785 19.8317 15.0167C19.4533 15.25 19.265 15.555 19.265 15.9333C19.265 16.35 19.4967 16.7033 19.96 16.9967C20.4267 17.2783 21.22 17.59 22.3433 17.9317C23.7 18.335 24.6667 18.8733 25.24 19.545C25.815 20.2167 26.1017 21.0733 26.1017 22.1117C26.1017 23.175 25.6933 24.0917 24.8733 24.8617C24.0667 25.62 22.8933 26.0167 21.3533 26.0533C19.3367 26.0533 17.65 25.4483 16.2933 24.2383L17.7233 22.2583ZM8.50667 23.3217C8.89833 23.5667 9.36833 23.6883 9.91833 23.6883C10.4933 23.6883 10.9683 23.5233 11.3483 23.1933C11.7267 22.8517 11.9167 22.2583 11.9167 21.415V12.5783H14.3917V21.8917C14.355 23.3333 13.94 24.3733 13.145 25.0083C12.7112 25.3772 12.2055 25.6519 11.66 25.815C11.1547 25.969 10.6299 26.0492 10.1017 26.0533C9.185 26.0533 8.37167 25.895 7.66333 25.5767C6.905 25.235 6.27 24.63 5.75667 23.7617L7.48 22.35C7.79667 22.7783 8.14 23.1017 8.50667 23.3217Z" fill="#8D7C60"/>
</svg>
