<svg width="27" height="35" viewBox="0 0 27 35" fill="none" xmlns="http://www.w3.org/2000/svg">
<path fill-rule="evenodd" clip-rule="evenodd" d="M8.91718 27.0699C8.91718 27.0699 7.57636 27.8492 9.86808 28.109C12.6454 28.4234 14.0615 28.3824 17.1193 27.8014C17.1193 27.8014 17.9266 28.3072 19.0484 28.7447C12.1939 31.6773 3.53343 28.5738 8.91718 27.0699ZM8.08257 23.235C8.08257 23.235 6.58445 24.3425 8.87613 24.5817C11.8382 24.8893 14.1846 24.9098 18.2344 24.1305C18.2344 24.1305 18.7953 24.6979 19.6778 25.0055C11.3799 27.4322 2.14476 25.2038 8.08257 23.235ZM15.1423 16.7342C16.832 18.6755 14.6976 20.4255 14.6976 20.4255C14.6976 20.4255 18.9869 18.2107 17.0167 15.4422C15.1765 12.8582 13.7673 11.5731 21.4017 7.15027C21.4085 7.15027 9.4166 10.1444 15.1423 16.7342ZM24.2133 29.9C24.2133 29.9 25.2052 30.7134 23.1255 31.3492C19.1647 32.5455 6.65288 32.9078 3.17773 31.397C1.92585 30.857 4.27226 30.0982 5.01109 29.941C5.77722 29.7769 6.22191 29.8043 6.22191 29.8043C4.8332 28.8267 -2.76012 31.7252 2.36367 32.5523C16.3326 34.8218 27.8389 31.5338 24.2133 29.9ZM9.56023 19.2634C9.56023 19.2634 3.1914 20.7741 7.30273 21.321C9.04031 21.5534 12.5018 21.4988 15.7238 21.2321C18.3575 21.0134 21.0049 20.5349 21.0049 20.5349C21.0049 20.5349 20.0745 20.9314 19.4041 21.3894C12.9396 23.0915 0.455071 22.2986 4.04648 20.5622C7.09062 19.0993 9.56019 19.2634 9.56019 19.2634M20.9844 25.6413C27.5584 22.2302 24.5142 18.949 22.3936 19.3933C21.8737 19.5027 21.6411 19.5984 21.6411 19.5984C21.6411 19.5984 21.8326 19.2976 22.2021 19.1677C26.3955 17.6911 29.6243 23.5153 20.8476 25.819C20.8476 25.8121 20.9502 25.7233 20.9844 25.6413ZM17.0167 0C17.0167 0 20.656 3.63672 13.5621 9.22836C7.87734 13.7127 12.2623 16.2762 13.5621 19.1951C10.2443 16.2009 7.80898 13.5691 9.44394 11.1151C11.8451 7.52625 18.4875 5.77629 17.0167 0ZM10.2101 34.8902C16.5173 35.2935 26.2039 34.6646 26.4297 31.6841C26.4297 31.6841 25.9919 32.812 21.217 33.7144C15.8332 34.7261 9.19081 34.6099 5.25734 33.9605C5.25734 33.9536 6.06456 34.6236 10.2101 34.8902Z" fill="#8D7C60"/>
</svg>
