<svg width="128" height="128" viewBox="0 0 128 128" fill="none" xmlns="http://www.w3.org/2000/svg">
<path d="M65.2837 106.928C64.4557 106.741 63.6507 106.482 62.8427 106.243L62.2337 106.058C61.4454 105.816 60.6613 105.561 59.8817 105.293L59.5587 105.176C58.8634 104.931 58.172 104.674 57.4847 104.407L56.9027 104.178C56.1507 103.881 55.4027 103.571 54.6647 103.247L54.2177 103.049C53.5848 102.763 52.955 102.47 52.3287 102.17L51.7827 101.908C51.2917 101.669 50.8057 101.415 50.3217 101.165C49.9977 100.994 49.6677 100.833 49.3467 100.655C48.7573 100.338 48.1736 100.011 47.5957 99.6731L47.0047 99.3431C46.2369 98.8902 45.4768 98.4244 44.7247 97.9461L44.1097 97.5361C43.5627 97.1856 43.0216 96.8258 42.4867 96.4571L41.9637 96.0901C41.4486 95.7256 40.9373 95.3559 40.4297 94.9811L39.7507 94.4671C39.2847 94.1125 38.8233 93.7518 38.3667 93.3851L37.7497 92.8901C37.1687 92.4133 36.5939 91.929 36.0257 91.4371L35.8377 91.2781C35.2254 90.7382 34.6214 90.1891 34.0257 89.6311L33.5157 89.1401C33.0747 88.7201 32.6407 88.2971 32.2137 87.8631L31.7037 87.3541C31.1617 86.7993 30.6286 86.2359 30.1047 85.6641L30.0267 85.5801C29.4749 84.9755 28.9345 84.3608 28.4057 83.7361L27.9817 83.2321C27.5861 82.7568 27.1971 82.2761 26.8147 81.7901L26.3877 81.2581C25.9302 80.6665 25.4811 80.0685 25.0407 79.4641C12.8907 62.8901 8.52469 40.0321 18.2367 21.2601L9.62569 32.1811C-1.40331 48.0321 -0.0303092 68.6571 8.39469 85.5011C8.59469 85.9051 8.80569 86.3021 9.01169 86.6991L9.40669 87.4581L9.65169 87.8951L10.0907 88.6811C10.3527 89.1421 10.6207 89.6011 10.8957 90.0601L11.3537 90.8161C11.6577 91.3071 11.9687 91.7921 12.2877 92.2761L12.6857 92.8901C13.1237 93.5451 13.5737 94.1991 14.0377 94.8411L14.0767 94.8911L14.3047 95.1991C14.7047 95.7521 15.1187 96.2981 15.5367 96.8381L15.9997 97.4281C16.3727 97.8971 16.7517 98.3631 17.1387 98.8271L17.5737 99.3471C18.0927 99.9595 18.6214 100.564 19.1597 101.159L19.1917 101.192L19.2537 101.26C19.7825 101.834 20.3199 102.401 20.8657 102.959L21.3827 103.48C21.8057 103.906 22.2357 104.325 22.6697 104.742L23.1957 105.242C23.7757 105.789 24.3617 106.325 24.9597 106.849L24.9877 106.871L25.2947 107.133C25.8207 107.589 26.3567 108.042 26.8977 108.486L27.5617 109.015C28.0027 109.369 28.4487 109.717 28.8977 110.059L29.6117 110.602C30.1067 110.967 30.6067 111.326 31.1107 111.677L31.6567 112.064L31.8067 112.171C32.2847 112.5 32.7737 112.817 33.2627 113.134L33.8927 113.554C34.6417 114.028 35.4027 114.497 36.1707 114.95L36.8007 115.305C37.3668 115.632 37.9372 115.952 38.5117 116.264C38.8237 116.432 39.1437 116.591 39.4577 116.752C39.8647 116.965 40.2687 117.181 40.6827 117.388L40.9657 117.525L41.4667 117.767C42.1077 118.073 42.7537 118.374 43.4067 118.664L43.8167 118.848C44.5652 119.176 45.3197 119.489 46.0797 119.789L46.6307 120.006C47.3347 120.277 48.0487 120.545 48.7657 120.797L49.0337 120.89C49.8197 121.165 50.6147 121.42 51.4147 121.669L51.9897 121.841C52.8037 122.086 53.6077 122.379 54.4477 122.534C107.787 132.261 123.281 90.4811 123.281 90.4811C110.267 107.435 87.1687 111.907 65.2837 106.928ZM46.0697 63.6971C47.2647 65.4101 48.5897 67.4481 50.1747 68.8241C50.7546 69.4593 51.3515 70.0788 51.9647 70.6821L52.4367 71.1471C53.0325 71.7275 53.642 72.2936 54.2647 72.8451L54.3387 72.9091L54.3567 72.9271C55.0535 73.5338 55.7654 74.123 56.4917 74.6941L56.9757 75.0721C57.706 75.6347 58.4506 76.1785 59.2087 76.7031L59.2737 76.7521C59.6097 76.9841 59.9527 77.2001 60.2937 77.4241L60.7757 77.7431C61.3197 78.0921 61.8717 78.4321 62.4317 78.7581L62.6657 78.8941C63.1487 79.1721 63.6387 79.4461 64.1287 79.7121L64.6497 79.9831C64.9887 80.1601 65.3277 80.3411 65.6737 80.5131L65.8287 80.5831C66.5307 80.9291 67.2397 81.2631 67.9647 81.5781L68.4367 81.7721C69.0155 82.0197 69.5989 82.2564 70.1867 82.4821L70.9367 82.7571C71.4697 82.9551 72.0047 83.1351 72.5447 83.3161L73.2717 83.5491C74.0387 83.7871 74.7967 84.0881 75.5957 84.2211C116.779 91.0441 126.286 59.3351 126.286 59.3351C117.716 71.6781 101.118 77.5681 83.4067 72.9701C82.6237 72.7642 81.8458 72.5394 81.0737 72.2961L80.3737 72.0691C79.8262 71.8919 79.2821 71.7046 78.7417 71.5071L78.0057 71.2331C77.4165 71.0067 76.8311 70.7707 76.2497 70.5251L75.7767 70.3251C75.0525 70.0099 74.3363 69.6768 73.6287 69.3261C73.2647 69.1491 72.9077 68.9621 72.5507 68.7781L71.9287 68.4581C71.4699 68.2094 71.0155 67.9527 70.5657 67.6881L70.2397 67.5031C69.683 67.1782 69.1328 66.8422 68.5897 66.4951L68.0917 66.1631C67.7331 65.9309 67.3767 65.6952 67.0227 65.4561C66.268 64.9311 65.5257 64.3882 64.7967 63.8281L64.2957 63.4331C56.5437 57.3131 50.3987 48.9471 47.4767 39.4621C44.4147 29.6261 45.0757 18.5841 50.3797 9.62207L43.8627 18.8221C35.8857 30.3001 36.3197 45.6661 42.5417 57.8051C43.5823 59.847 44.761 61.8156 46.0697 63.6971ZM89.4767 49.4981C89.8157 49.6231 90.1547 49.7351 90.4987 49.8521L90.9497 49.9951C91.4337 50.1471 91.9157 50.3241 92.4167 50.4191C115.156 54.8131 121.325 38.7501 122.966 36.3851C117.563 44.1641 108.484 46.0311 97.3427 43.3271C96.4627 43.1141 95.4947 42.7961 94.6467 42.4951C93.5573 42.108 92.4889 41.6644 91.4457 41.1661C89.4663 40.2134 87.5864 39.0664 85.8337 37.7421C75.8647 30.1771 69.6717 15.7481 76.1767 3.99707L72.6567 8.84807C67.9547 15.7681 67.4927 24.3621 70.7557 32.0041C74.1967 40.1161 81.2477 46.4791 89.4767 49.4981Z" fill="#A19073"/>
</svg>
