<svg xmlns="http://www.w3.org/2000/svg" xmlns:xlink="http://www.w3.org/1999/xlink" width="220" zoomAndPan="magnify" viewBox="0 0 165 67.499998" height="90" preserveAspectRatio="xMidYMid meet" version="1.0"><defs><g/></defs><g fill="#eae3d7" fill-opacity="1"><g transform="translate(23.625248, 46.056236)"><g><path d="M 22.84375 0 L 16.9375 0 L 16.9375 -0.5625 L 8.515625 -10.6875 L 6.34375 -10.6875 L 6.34375 -1.875 C 6.34375 -1.28125 6.585938 -0.867188 7.078125 -0.640625 C 7.578125 -0.410156 8.164062 -0.253906 8.84375 -0.171875 L 8.84375 0 L 0.5 0 L 0.5 -0.171875 C 1.175781 -0.253906 1.757812 -0.410156 2.25 -0.640625 C 2.738281 -0.867188 2.984375 -1.28125 2.984375 -1.875 L 2.984375 -21.140625 C 2.984375 -21.734375 2.738281 -22.144531 2.25 -22.375 C 1.757812 -22.601562 1.175781 -22.757812 0.5 -22.84375 L 0.5 -23.015625 L 8.84375 -23.015625 L 8.84375 -22.84375 C 8.164062 -22.757812 7.578125 -22.601562 7.078125 -22.375 C 6.585938 -22.144531 6.34375 -21.734375 6.34375 -21.140625 L 6.34375 -10.71875 L 17.1875 -21.234375 C 17.40625 -21.429688 17.546875 -21.632812 17.609375 -21.84375 C 17.679688 -22.050781 17.585938 -22.242188 17.328125 -22.421875 C 17.066406 -22.597656 16.53125 -22.726562 15.71875 -22.8125 L 15.78125 -23.015625 L 22.21875 -23.015625 L 22.15625 -22.8125 C 21.476562 -22.726562 20.609375 -22.429688 19.546875 -21.921875 C 18.484375 -21.421875 17.226562 -20.457031 15.78125 -19.03125 L 10.15625 -13.578125 L 17.953125 -4.34375 C 18.710938 -3.4375 19.347656 -2.710938 19.859375 -2.171875 C 20.378906 -1.640625 20.863281 -1.210938 21.3125 -0.890625 C 21.769531 -0.578125 22.28125 -0.28125 22.84375 0 Z M 22.84375 0 "/></g></g></g><g fill="#eae3d7" fill-opacity="1"><g transform="translate(46.628656, 46.056236)"><g><path d="M 20.25 -6.40625 L 20.375 -6.34375 L 18.765625 0 L 18.578125 0.71875 L 17.453125 0 L 0.5 0 L 0.5 -0.171875 C 1.175781 -0.410156 1.757812 -0.710938 2.25 -1.078125 C 2.738281 -1.453125 2.984375 -1.9375 2.984375 -2.53125 L 2.984375 -21.140625 C 2.984375 -21.734375 2.738281 -22.144531 2.25 -22.375 C 1.757812 -22.601562 1.175781 -22.757812 0.5 -22.84375 L 0.5 -23.015625 L 18.109375 -23.015625 L 19.203125 -17.78125 L 19.0625 -17.71875 C 18.34375 -18.769531 17.664062 -19.644531 17.03125 -20.34375 C 16.394531 -21.050781 15.679688 -21.582031 14.890625 -21.9375 C 14.097656 -22.300781 13.09375 -22.484375 11.875 -22.484375 L 6.34375 -22.484375 L 6.34375 -11.765625 L 10.953125 -11.765625 C 12.109375 -11.765625 13.019531 -11.875 13.6875 -12.09375 C 14.351562 -12.3125 14.875 -12.660156 15.25 -13.140625 C 15.625 -13.628906 15.941406 -14.28125 16.203125 -15.09375 L 16.203125 -7.921875 C 15.941406 -8.734375 15.625 -9.378906 15.25 -9.859375 C 14.875 -10.335938 14.351562 -10.6875 13.6875 -10.90625 C 13.019531 -11.132812 12.109375 -11.25 10.953125 -11.25 L 6.34375 -11.25 L 6.34375 -0.53125 L 12.53125 -0.53125 C 13.75 -0.53125 14.769531 -0.753906 15.59375 -1.203125 C 16.414062 -1.648438 17.179688 -2.3125 17.890625 -3.1875 C 18.609375 -4.0625 19.394531 -5.132812 20.25 -6.40625 Z M 20.25 -6.40625 "/></g></g></g><g fill="#eae3d7" fill-opacity="1"><g transform="translate(67.49603, 46.056236)"><g><path d="M 17.984375 -23.015625 L 23.671875 -23.015625 L 23.671875 -22.84375 C 23.234375 -22.800781 22.820312 -22.675781 22.4375 -22.46875 C 22.050781 -22.257812 21.742188 -21.8125 21.515625 -21.125 C 21.285156 -20.4375 21.171875 -19.34375 21.171875 -17.84375 L 21.171875 -5.453125 C 21.171875 -3.742188 21.191406 -2.410156 21.234375 -1.453125 C 21.273438 -0.503906 21.304688 0.265625 21.328125 0.859375 L 21.265625 0.921875 L 3.984375 -19.625 L 3.984375 -5.8125 C 3.984375 -4.320312 4.097656 -3.175781 4.328125 -2.375 C 4.554688 -1.582031 4.859375 -1.03125 5.234375 -0.71875 C 5.617188 -0.414062 6.03125 -0.234375 6.46875 -0.171875 L 6.46875 0 L 0.828125 0 L 0.828125 -0.171875 C 1.285156 -0.234375 1.695312 -0.363281 2.0625 -0.5625 C 2.4375 -0.757812 2.738281 -1.203125 2.96875 -1.890625 C 3.207031 -2.578125 3.328125 -3.664062 3.328125 -5.15625 L 3.328125 -20.421875 C 2.773438 -21.078125 2.269531 -21.609375 1.8125 -22.015625 C 1.351562 -22.421875 0.859375 -22.753906 0.328125 -23.015625 L 5.859375 -23.015625 C 5.960938 -22.816406 6.101562 -22.566406 6.28125 -22.265625 C 6.457031 -21.972656 6.71875 -21.628906 7.0625 -21.234375 L 20.484375 -5.265625 L 20.484375 -17.1875 C 20.484375 -18.675781 20.367188 -19.820312 20.140625 -20.625 C 19.910156 -21.425781 19.609375 -21.984375 19.234375 -22.296875 C 18.859375 -22.617188 18.441406 -22.800781 17.984375 -22.84375 Z M 17.984375 -23.015625 "/></g></g></g><g fill="#eae3d7" fill-opacity="1"><g transform="translate(91.64961, 46.056236)"><g><path d="M 20.71875 -22.875 C 20.382812 -22.8125 20.066406 -22.65625 19.765625 -22.40625 C 19.472656 -22.15625 19.132812 -21.753906 18.75 -21.203125 C 18.375 -20.648438 17.878906 -19.894531 17.265625 -18.9375 L 5.890625 -0.53125 L 11.546875 -0.53125 C 12.898438 -0.53125 14.050781 -0.601562 15 -0.75 C 15.957031 -0.90625 16.769531 -1.195312 17.4375 -1.625 C 18.101562 -2.050781 18.6875 -2.660156 19.1875 -3.453125 C 19.695312 -4.242188 20.160156 -5.273438 20.578125 -6.546875 L 20.71875 -6.546875 L 19.6875 0 L 0.65625 0 C 1.15625 -0.21875 1.71875 -0.707031 2.34375 -1.46875 C 2.96875 -2.238281 3.773438 -3.414062 4.765625 -5 L 15.609375 -22.484375 L 10.75 -22.484375 C 9.476562 -22.484375 8.382812 -22.40625 7.46875 -22.25 C 6.5625 -22.101562 5.78125 -21.8125 5.125 -21.375 C 4.46875 -20.9375 3.898438 -20.320312 3.421875 -19.53125 C 2.941406 -18.738281 2.476562 -17.695312 2.03125 -16.40625 L 1.90625 -16.40625 L 2.921875 -23.015625 L 20.71875 -23.015625 Z M 20.71875 -22.875 "/></g></g></g><g fill="#eae3d7" fill-opacity="1"><g transform="translate(113.009916, 46.056236)"><g><path d="M 13.875 -23.46875 C 15.582031 -23.46875 17.179688 -23.191406 18.671875 -22.640625 C 20.160156 -22.097656 21.472656 -21.304688 22.609375 -20.265625 C 23.753906 -19.222656 24.644531 -17.960938 25.28125 -16.484375 C 25.914062 -15.003906 26.234375 -13.34375 26.234375 -11.5 C 26.234375 -9.664062 25.914062 -8.007812 25.28125 -6.53125 C 24.644531 -5.050781 23.753906 -3.789062 22.609375 -2.75 C 21.472656 -1.707031 20.160156 -0.910156 18.671875 -0.359375 C 17.179688 0.179688 15.582031 0.453125 13.875 0.453125 C 12.164062 0.453125 10.5625 0.179688 9.0625 -0.359375 C 7.5625 -0.910156 6.238281 -1.707031 5.09375 -2.75 C 3.957031 -3.789062 3.070312 -5.050781 2.4375 -6.53125 C 1.800781 -8.007812 1.484375 -9.664062 1.484375 -11.5 C 1.484375 -13.34375 1.800781 -15.003906 2.4375 -16.484375 C 3.070312 -17.960938 3.957031 -19.222656 5.09375 -20.265625 C 6.238281 -21.304688 7.5625 -22.097656 9.0625 -22.640625 C 10.5625 -23.191406 12.164062 -23.46875 13.875 -23.46875 Z M 15.1875 -0.125 C 16.695312 -0.125 18.015625 -0.523438 19.140625 -1.328125 C 20.273438 -2.128906 21.148438 -3.234375 21.765625 -4.640625 C 22.378906 -6.054688 22.6875 -7.695312 22.6875 -9.5625 C 22.6875 -11.207031 22.429688 -12.820312 21.921875 -14.40625 C 21.421875 -16 20.71875 -17.429688 19.8125 -18.703125 C 18.914062 -19.972656 17.847656 -20.984375 16.609375 -21.734375 C 15.378906 -22.492188 14.019531 -22.875 12.53125 -22.875 C 11.007812 -22.875 9.691406 -22.472656 8.578125 -21.671875 C 7.460938 -20.878906 6.59375 -19.78125 5.96875 -18.375 C 5.34375 -16.96875 5.03125 -15.335938 5.03125 -13.484375 C 5.03125 -11.816406 5.28125 -10.191406 5.78125 -8.609375 C 6.289062 -7.035156 6.992188 -5.609375 7.890625 -4.328125 C 8.785156 -3.046875 9.859375 -2.023438 11.109375 -1.265625 C 12.359375 -0.503906 13.71875 -0.125 15.1875 -0.125 Z M 15.1875 -0.125 "/></g></g></g><path stroke-linecap="round" transform="matrix(0.744485, 0, 0, 0.744485, 3.396291, 2.096876)" fill="none" stroke-linejoin="miter" d="M 0.999797 0.997962 L 19.10165 0.997962 " stroke="#eae3d7" stroke-width="2" stroke-opacity="1" stroke-miterlimit="4"/><path stroke-linecap="round" transform="matrix(0, 0.744485, -0.744485, 0, 4.452635, 2.102561)" fill="none" stroke-linejoin="miter" d="M 1.000819 1.001503 L 46.124279 1.001503 " stroke="#eae3d7" stroke-width="2" stroke-opacity="1" stroke-miterlimit="4"/><path stroke-linecap="round" transform="matrix(-0.744485, 0, 0, -0.744485, 153.496232, 66.959889)" fill="none" stroke-linejoin="miter" d="M 1.002346 1.000752 L 22.561916 1.000752 " stroke="#eae3d7" stroke-width="2" stroke-opacity="1" stroke-miterlimit="4"/><path stroke-linecap="round" transform="matrix(0, -0.744485, 0.744485, 0, 152.385322, 66.954205)" fill="none" stroke-linejoin="miter" d="M 0.998364 0.99879 L 46.127071 0.99879 " stroke="#eae3d7" stroke-width="2" stroke-opacity="1" stroke-miterlimit="4"/></svg>