<svg width="128" height="128" viewBox="0 0 128 128" fill="none" xmlns="http://www.w3.org/2000/svg">
<g clip-path="url(#clip0_7_11)">
<path d="M127.403 22.7674C127.055 22.4809 126.613 22.3334 126.163 22.3534C124.927 22.3534 123.33 23.1913 122.47 23.6403L122.13 23.8154C120.688 24.5131 119.118 24.9079 117.518 24.9754C115.882 25.0268 114.249 25.1402 112.622 25.3154C101.712 26.4364 96.845 34.7993 92.158 42.8853C89.606 47.2843 86.97 51.8544 83.356 55.3454C82.609 56.0694 81.815 56.7454 80.978 57.3654C77.238 60.1454 72.543 62.1304 68.89 63.5354C65.372 64.8804 61.531 66.0884 57.824 67.2574C54.424 68.3274 51.215 69.3393 48.264 70.4353C47.12 70.8573 45.965 71.2584 44.805 71.6404C42.117 72.5124 40.179 73.1803 37.347 75.1303C36.3318 75.8198 35.3434 76.548 34.384 77.3134C32.1359 79.1071 30.1461 81.2025 28.471 83.5404C27.0305 85.6969 25.3659 87.6951 23.505 89.5014C22.907 90.0854 21.846 90.3734 20.257 90.3734C18.397 90.3734 16.142 89.9894 13.756 89.5834C11.294 89.1484 8.75 88.7334 6.568 88.7334C4.797 88.7334 3.438 89.0234 2.427 89.6064C2.427 89.6064 0.719 90.6014 0 91.8884L0.707 92.2084C1.8033 92.8024 2.81835 93.5355 3.727 94.3894C4.67464 95.2647 5.73017 96.0154 6.868 96.6234C7.233 96.7574 7.563 96.9673 7.838 97.2393C7.542 97.6753 7.104 98.2383 6.645 98.8393C4.128 102.135 2.658 104.216 3.5 105.35C3.904 105.56 4.355 105.662 4.81 105.647C10.3 105.647 13.25 104.221 16.98 102.414C18.062 101.892 19.162 101.354 20.471 100.799C22.653 99.8534 25.002 98.3434 27.493 96.7454C30.753 94.6214 34.161 92.4394 37.469 91.3874C40.1872 90.5582 43.0186 90.1604 45.86 90.2084C49.352 90.2084 53.027 90.6743 56.57 91.1283C59.211 91.4703 61.947 91.8184 64.63 91.9804C65.6109 92.0398 66.5933 92.0705 67.576 92.0723C68.831 92.0761 70.0852 92.0107 71.333 91.8764L71.633 91.7714C73.516 90.6134 74.398 88.1314 75.251 85.7314C75.802 84.1854 76.265 82.7984 76.998 81.9174C77.041 81.8744 77.088 81.8354 77.138 81.8004C77.1722 81.7814 77.2118 81.7745 77.2504 81.7806C77.289 81.7868 77.3244 81.8057 77.351 81.8344V81.9044C76.916 91.2914 73.136 97.2524 69.313 102.55L66.761 105.286C66.761 105.286 70.334 105.286 72.368 104.5C79.788 102.283 85.386 97.3963 89.461 89.6013C90.4663 87.6002 91.3653 85.5473 92.154 83.4513C92.224 83.2793 92.866 82.9554 92.804 83.8584C92.783 84.1254 92.764 84.4214 92.743 84.7324C92.743 84.9144 92.743 85.1024 92.708 85.2904C92.604 86.6004 92.294 89.3663 92.294 89.3663L94.584 88.1394C100.109 84.6494 104.368 77.6064 107.599 66.6484C108.943 62.0824 109.929 57.5484 110.796 53.5554C111.835 48.7544 112.731 44.6404 113.756 43.0434C115.366 40.5374 117.823 38.8434 120.201 37.1994C120.524 36.9774 120.851 36.7624 121.171 36.5264C124.159 34.4284 127.131 32.0064 127.787 27.4894V27.3894C128.261 24.0194 127.86 23.1604 127.403 22.7674Z" fill="#A19073"/>
</g>
<defs>
<clipPath id="clip0_7_11">
<rect width="128" height="128" fill="white"/>
</clipPath>
</defs>
</svg>
