<svg width="128" height="128" viewBox="0 0 128 128" fill="none" xmlns="http://www.w3.org/2000/svg">
<path fill-rule="evenodd" clip-rule="evenodd" d="M90.4918 57.2817C90.1218 52.4917 88.9958 47.8727 87.4298 43.3477C84.1858 33.2437 78.9798 24.3017 71.6468 16.6077C69.7928 14.6617 67.7308 12.8787 66.4378 10.4567C65.6198 8.92469 64.8408 7.37169 64.0438 5.82769L63.5388 4.55469C63.4538 4.84669 63.3998 4.95069 63.3968 5.05569C63.3318 7.57269 61.9058 9.27969 60.1298 10.8727C58.1328 12.6657 56.2738 14.6117 54.3548 16.4907L48.4538 24.2537C46.8618 27.1787 45.2718 30.1037 43.6818 33.0287L40.4918 41.6457L40.3958 41.7797C38.6398 47.5477 37.7738 53.4777 37.3478 59.4677C37.1878 61.7187 37.3698 64.0027 37.4968 66.2657C37.6778 69.5007 38.2398 72.6807 39.0828 75.8107C42.1448 87.1827 48.3588 96.6157 56.8538 104.63C58.4328 106.119 60.0528 107.473 61.7008 108.89C61.9828 107.925 62.2078 106.96 62.4638 105.995C62.7198 105.034 62.9788 104.078 63.1518 103.114C62.9778 104.078 62.7828 105.034 62.5898 105.995L61.7638 108.89L62.5018 111.391L63.1858 115.275L63.5118 119.328C63.5088 120.151 63.4758 120.976 63.5258 121.798C63.5378 122.008 63.8138 122.202 63.9678 122.404L65.3438 122.887L66.7778 123.445L66.5318 119.842L66.5208 116.294L67.0158 110.889L67.3748 109.712L68.4018 107.892C69.6698 106.872 71.0308 105.946 72.1858 104.811C74.2758 102.757 76.3608 100.677 78.2308 98.4277C80.6648 95.5126 82.7431 92.3181 84.4218 88.9117C85.5438 86.6277 86.5998 84.2977 87.4738 81.9107C88.2438 79.8067 88.7208 77.5957 89.3278 75.4317C89.3818 75.2757 89.4538 75.1227 89.4878 74.9637C90.7418 69.1227 90.9528 63.2227 90.4918 57.2817Z" fill="#A19073"/>
</svg>
