<svg width="41" height="29" viewBox="0 0 41 29" fill="none" xmlns="http://www.w3.org/2000/svg">
<path d="M27.8417 3.66833C27.65 3.66833 27.52 3.69167 27.385 3.72333V3.745H27.4083C27.4983 3.91833 27.6517 4.045 27.765 4.2C27.855 4.37833 27.9317 4.55667 28.0217 4.73333L28.045 4.70833C28.2017 4.59833 28.2783 4.42167 28.2783 4.15333C28.2117 4.075 28.2017 3.99667 28.145 3.92C28.0783 3.80833 27.935 3.75333 27.845 3.665L27.8417 3.66833ZM10.1167 25.6583H8.57167C8.52822 23.203 8.37808 20.7507 8.12167 18.3083H8.10833L5.75833 25.6583H4.58333L2.25 18.3083H2.23333C2.05082 20.7545 1.94244 23.2056 1.90833 25.6583H0.5C0.591667 22.3817 0.82 19.3083 1.18333 16.4417H3.1L5.325 23.215H5.33833L7.58333 16.4417H9.40833C9.81167 19.8 10.0483 22.875 10.1217 25.6583H10.1167ZM16.8117 18.8583C16.1817 22.2667 15.3517 24.7467 14.325 26.2917C13.5217 27.485 12.6417 28.08 11.6867 28.08C11.4317 28.08 11.12 28.0033 10.7433 27.85V27.0267C10.9267 27.055 11.1433 27.07 11.3867 27.07C11.8333 27.07 12.1917 26.945 12.465 26.7C12.7933 26.4 12.9567 26.0633 12.9567 25.6917C12.9567 25.4333 12.8283 24.9083 12.5733 24.1183L10.8833 18.8583H12.4L13.6117 22.7917C13.885 23.685 14 24.3083 13.9533 24.6633C14.62 22.89 15.0833 20.9517 15.345 18.8583H16.8117ZM37.3533 25.6583H32.97V16.4417H34.445V24.525H37.3533V25.6583ZM31.82 25.8833L30.1267 25.05C30.2767 24.9233 30.4217 24.7867 30.5517 24.6333C31.2733 23.79 31.6317 22.5367 31.6317 20.8783C31.6317 17.8283 30.435 16.3017 28.04 16.3017C26.8667 16.3017 25.95 16.6883 25.29 17.4633C24.5733 18.31 24.2133 19.5567 24.2133 21.205C24.2133 22.825 24.53 24.015 25.17 24.7717C25.7533 25.455 26.6317 25.7967 27.8083 25.7967C28.2483 25.7967 28.6517 25.7417 29.0167 25.6333L31.225 26.92L31.825 25.8833H31.82ZM26.3333 23.8133C25.9583 23.2133 25.7717 22.2467 25.7717 20.92C25.7717 18.5983 26.4783 17.4367 27.8883 17.4367C28.6267 17.4367 29.1717 17.715 29.5167 18.27C29.89 18.8733 30.0767 19.83 30.0767 21.1417C30.0767 23.4817 29.37 24.655 27.96 24.655C27.2183 24.655 26.6767 24.3767 26.33 23.8217L26.3333 23.8133ZM23.57 23.105C23.57 23.8883 23.2833 24.5317 22.71 25.0317C22.1367 25.5317 21.3717 25.7817 20.4033 25.7817C19.4983 25.7817 18.63 25.495 17.7817 24.9233L18.1767 24.13C18.9067 24.4967 19.565 24.6767 20.16 24.6767C20.7133 24.6767 21.1483 24.555 21.465 24.31C21.6233 24.1907 21.7511 24.0356 21.838 23.8575C21.9249 23.6793 21.9684 23.4832 21.965 23.285C21.965 22.735 21.5817 22.2683 20.885 21.8767C20.2383 21.5217 18.9467 20.7817 18.9467 20.7817C18.2433 20.27 17.8933 19.7217 17.8933 18.82C17.8933 18.07 18.155 17.47 18.6767 17.0117C19.2017 16.5483 19.8767 16.32 20.71 16.32C21.5633 16.32 22.3433 16.5467 23.0433 17.0033L22.6883 17.7967C22.129 17.551 21.5259 17.4206 20.915 17.4133C20.4433 17.4133 20.0783 17.5267 19.825 17.7567C19.6964 17.8632 19.5928 17.9966 19.5214 18.1475C19.45 18.2983 19.4125 18.4631 19.4117 18.63C19.4117 19.1767 19.8017 19.6467 20.5217 20.0467C21.1767 20.405 22.5 21.1633 22.5 21.1633C23.2217 21.6717 23.58 22.2133 23.58 23.11L23.57 23.105ZM39.2067 13.3517C38.315 13.3283 37.6233 13.4183 37.045 13.665C36.8783 13.7317 36.6117 13.7317 36.5883 13.9433C36.68 14.0317 36.6933 14.1767 36.7717 14.3C36.905 14.5233 37.135 14.8217 37.3483 14.9783C37.5817 15.1617 37.815 15.3383 38.06 15.495C38.4933 15.7617 38.985 15.92 39.41 16.1883C39.6517 16.345 39.8983 16.5433 40.1433 16.71C40.265 16.7933 40.3433 16.9433 40.5 16.9967V16.9633C40.4233 16.8633 40.4 16.7183 40.325 16.6067C40.2133 16.495 40.1017 16.395 39.9917 16.285C39.6644 15.8538 39.2739 15.4745 38.8333 15.16C38.4767 14.9167 37.6967 14.5767 37.55 14.1683L37.5283 14.145C37.7717 14.1233 38.0617 14.035 38.295 13.9683C38.6733 13.8683 39.02 13.89 39.4117 13.7917C39.5883 13.7467 39.7667 13.6917 39.945 13.635V13.535C39.745 13.335 39.595 13.0633 39.3883 12.8767C38.8115 12.3724 38.1963 11.9138 37.5483 11.505C37.1983 11.2817 36.755 11.1383 36.3867 10.9483C36.2533 10.8817 36.03 10.8483 35.9533 10.7367C35.7533 10.4933 35.6367 10.17 35.495 9.88C35.1677 9.24515 34.8636 8.59861 34.5833 7.94167C34.3833 7.505 34.2617 7.07 34.0167 6.67C32.8667 4.775 31.6217 3.62667 29.7067 2.50333C29.295 2.27 28.8017 2.17 28.28 2.04667C28.0017 2.03333 27.7233 2.01333 27.4467 2.00167C27.2633 1.92333 27.0867 1.71167 26.93 1.61C26.2967 1.21 24.6567 0.343334 24.19 1.49C23.89 2.21333 24.635 2.92667 24.8933 3.29333C25.085 3.54833 25.3267 3.84 25.46 4.12667C25.5383 4.32 25.56 4.51833 25.6383 4.72C25.815 5.21 25.9833 5.75667 26.2167 6.215C26.3383 6.44833 26.4717 6.69333 26.6283 6.90333C26.7183 7.025 26.8717 7.08167 26.9067 7.28167C26.75 7.50833 26.74 7.83833 26.65 8.115C26.25 9.37667 26.4067 10.9367 26.9733 11.865C27.1517 12.1417 27.5767 12.755 28.145 12.52C28.645 12.32 28.535 11.6867 28.6783 11.1283C28.7117 10.995 28.69 10.9067 28.7583 10.8167V10.8417C28.915 11.155 29.0717 11.4533 29.215 11.7667C29.5583 12.3133 30.1583 12.88 30.66 13.2583C30.9267 13.4583 31.1383 13.805 31.4717 13.9283V13.895H31.4467C31.375 13.7983 31.28 13.7517 31.19 13.6733C30.9787 13.4665 30.7837 13.2436 30.6067 13.0067C30.1371 12.365 29.7207 11.6861 29.3617 10.9767C29.1783 10.6267 29.025 10.25 28.8783 9.905C28.8117 9.77167 28.8117 9.57167 28.7 9.505C28.5333 9.74833 28.2883 9.96 28.1667 10.26C27.955 10.74 27.9333 11.33 27.8533 11.9433C27.8083 11.955 27.83 11.9433 27.8083 11.9667C27.4517 11.88 27.33 11.51 27.1967 11.2C26.8633 10.4083 26.8083 9.13667 27.0967 8.225C27.175 7.99167 27.5083 7.255 27.375 7.03167C27.305 6.82 27.085 6.69833 26.9633 6.52667C26.8068 6.30324 26.6728 6.06485 26.5633 5.815C26.2967 5.19167 26.1633 4.50167 25.8733 3.87833C25.74 3.59 25.5067 3.28833 25.3167 3.02333C25.105 2.72333 24.8717 2.51167 24.7033 2.15667C24.6483 2.035 24.57 1.83333 24.6583 1.7C24.6817 1.61 24.7283 1.575 24.815 1.55C24.9617 1.43 25.3733 1.58667 25.5183 1.65333C25.93 1.82 26.2767 1.97667 26.6217 2.21C26.7783 2.32 26.9467 2.53167 27.1467 2.58667H27.38C27.7367 2.665 28.1383 2.61 28.4717 2.70833C29.0633 2.89833 29.5967 3.175 30.075 3.475C31.5489 4.41652 32.7477 5.73092 33.55 7.285C33.6833 7.54167 33.7417 7.77667 33.8633 8.04333C34.0967 8.59334 34.385 9.14833 34.6217 9.68C34.855 10.205 35.08 10.74 35.415 11.175C35.5817 11.4083 36.2517 11.53 36.5517 11.6517C36.7733 11.7517 37.1183 11.8433 37.3183 11.965C37.7017 12.1983 38.075 12.465 38.435 12.7217C38.6183 12.8483 39.1733 13.1267 39.2067 13.3517Z" fill="#8D7C60"/>
</svg>
