<svg width="128" height="128" viewBox="0 0 128 128" fill="none" xmlns="http://www.w3.org/2000/svg">
<g clip-path="url(#clip0_7_15)">
<path d="M117.687 98.2418C110.714 98.0508 105.39 98.7028 100.835 100.621C99.5422 101.168 97.4802 101.18 97.2692 102.801C97.9802 103.547 98.0892 104.66 98.6562 105.578C99.7422 107.332 101.578 109.691 103.215 110.93C105.004 112.278 106.848 113.723 108.766 114.891C112.18 116.973 115.989 118.161 119.27 120.243C121.208 121.473 123.129 123.02 125.02 124.407C125.954 125.091 126.583 126.157 127.793 126.587V126.392C127.156 125.58 126.992 124.462 126.406 123.615L123.828 121.037C121.308 117.693 118.109 114.756 114.711 112.318C112 110.369 105.93 107.74 104.801 104.588L104.602 104.389C106.524 104.17 108.774 103.475 110.551 102.998C113.531 102.201 116.196 102.408 119.27 101.611L123.434 100.424V99.6308C121.879 98.0368 120.77 95.9238 119.075 94.4788C114.634 90.6978 109.79 86.9238 104.802 83.7758C102.036 82.0298 98.6182 80.8928 95.6852 79.4128C94.6972 78.9168 92.9662 78.6548 92.3142 77.8268C90.7752 75.8658 89.9352 73.3778 88.7482 71.0888C86.2602 66.2958 83.8182 61.0658 81.6112 56.0228C80.1072 52.5858 79.1272 49.1948 77.2522 46.1128C68.2522 31.3158 58.5652 22.3828 43.5572 13.6048C40.3622 11.7378 36.5182 10.9998 32.4552 10.0348L25.9122 9.63984C24.5802 9.08484 23.1972 7.45584 21.9472 6.66284C16.9762 3.51984 4.2222 -3.31216 0.538203 5.67184C-1.7858 11.3398 4.0152 16.8708 6.0892 19.7458C7.5462 21.7578 9.4092 24.0188 10.4482 26.2848C11.1362 27.7768 11.2532 29.2688 11.8392 30.8438C13.2772 34.7268 14.5342 38.9528 16.3982 42.5388C17.3392 44.3548 18.3782 46.2658 19.5702 47.8908C20.2972 48.8868 21.5502 49.3288 21.7502 50.8638C20.5232 52.5788 20.4532 55.2388 19.7662 57.4068C16.6682 67.1768 17.8402 79.3168 22.3442 86.5438C23.7272 88.7668 26.9852 93.5238 31.4612 91.6998C35.3792 90.1018 34.5042 85.1608 35.6252 80.7978C35.8792 79.8098 35.7232 79.0828 36.2192 78.4188V78.6178L39.7892 85.7508C42.4302 90.0048 47.1132 94.4498 51.0862 97.4498C53.1452 99.0048 54.7662 101.692 57.4302 102.602V102.403H57.2312C56.7152 101.598 55.9072 101.266 55.2512 100.622C53.7002 99.0988 51.9742 97.2078 50.6922 95.4658C47.0792 90.5638 43.8872 85.1958 40.9812 79.6108C39.5902 76.9428 38.3832 74.0018 37.2112 71.2868C36.7582 70.2398 36.7662 68.6538 35.8242 68.1148C34.5432 70.1028 32.6522 71.7128 31.6602 74.0598C30.0782 77.8138 29.8712 82.3958 29.2852 87.1418C28.9372 87.2668 29.0902 87.1808 28.8872 87.3408C26.1252 86.6728 25.1572 83.8328 24.1292 81.3918C21.5352 75.2278 21.0512 65.3018 23.3362 58.2008C23.9262 56.3648 26.5982 50.5838 25.5162 48.8848C25.0002 47.1938 23.2972 46.2128 22.3442 44.9198C21.1642 43.3218 19.9892 41.2168 19.1722 39.3688C17.0472 34.5638 16.0592 29.1658 13.8202 24.3068C12.7502 21.9828 10.9452 19.6308 9.4612 17.5688C7.8162 15.2798 5.9772 13.5918 4.7032 10.8268C4.2502 9.84284 3.6372 8.26784 4.3052 7.26084C4.5202 6.57684 4.8212 6.29184 5.4962 6.06984C6.6442 5.18284 9.8482 6.36684 11.0432 6.86284C14.2232 8.18284 16.8752 9.44084 19.5702 11.2258C20.8592 12.0808 22.1682 13.7378 23.7302 14.1988H25.5152C28.3042 14.8398 31.4292 14.3938 34.0382 15.1868C38.6472 16.5888 42.7762 18.7688 46.5262 21.1358C57.9482 28.3508 67.2922 38.6158 73.6822 50.8698C74.7092 52.8428 75.1552 54.7218 76.0612 56.8148C77.8852 61.0338 80.1862 65.3738 82.0022 69.5028C83.8182 73.6158 85.5842 77.7728 88.1502 81.1978C89.4982 82.9988 94.7012 83.9638 97.0682 84.9638C98.7282 85.6628 101.447 86.3938 103.017 87.3428C106.017 89.1518 108.923 91.3078 111.74 93.2878C113.142 94.2798 117.47 96.4558 117.685 98.2448L117.687 98.2418ZM29.0822 22.7218C27.6292 22.6948 26.6022 22.8778 25.5162 23.1168V23.3158H25.7112C26.4062 24.7378 27.6292 25.6558 28.4882 26.8818L30.4682 31.0458L30.6672 30.8508C31.8942 29.9838 32.4562 28.6008 32.4482 26.4878C31.9562 25.9678 31.8862 25.3238 31.4562 24.7028C30.8942 23.8788 29.7962 23.4138 29.0812 22.7228L29.0822 22.7218Z" fill="#A19073"/>
</g>
<defs>
<clipPath id="clip0_7_15">
<rect width="128" height="128" fill="white"/>
</clipPath>
</defs>
</svg>
