<svg width="128" height="128" viewBox="0 0 128 128" fill="none" xmlns="http://www.w3.org/2000/svg">
<g clip-path="url(#clip0_7_17)">
<path d="M86.072 24.6641C85.9492 24.6632 85.8283 24.6942 85.721 24.7541C85.6092 24.8192 85.5159 24.912 85.4503 25.0235C85.3846 25.1351 85.3487 25.2617 85.346 25.3911V44.3211C85.3438 44.4142 85.3185 44.5053 85.2724 44.5863C85.2264 44.6673 85.1609 44.7356 85.082 44.7851C85.0021 44.8281 84.9128 44.8506 84.822 44.8506C84.7313 44.8506 84.642 44.8281 84.562 44.7851L81.496 43.0121C81.2711 42.8831 81.0163 42.8153 80.757 42.8153C80.4978 42.8153 80.243 42.8831 80.018 43.0121L67.75 50.1461C67.5227 50.274 67.3332 50.4598 67.2008 50.6846C67.0684 50.9094 66.9978 51.1652 66.996 51.4261V65.6641C66.996 66.1881 67.287 66.6851 67.75 66.9471L80.02 74.0821C80.2448 74.2107 80.4992 74.2783 80.758 74.2783C81.0169 74.2783 81.2713 74.2107 81.496 74.0821L93.766 66.9471C94.229 66.6851 94.52 66.1881 94.52 65.6641V30.1681C94.52 29.6151 94.229 29.1181 93.766 28.8581L86.446 24.7541C86.3301 24.6954 86.202 24.6646 86.072 24.6641ZM13.686 42.4301C13.456 42.4301 13.225 42.5161 13.023 42.6301L0.753043 49.7391C0.522648 49.8705 0.33144 50.061 0.199094 50.2909C0.0667472 50.5208 -0.00195962 50.7818 4.25392e-05 51.0471L0.0300425 70.1481C0.0300425 70.4111 0.172043 70.6741 0.404043 70.7911C0.511512 70.8623 0.637598 70.9003 0.766543 70.9003C0.895488 70.9003 1.02157 70.8623 1.12904 70.7911L8.42404 66.5981C8.65093 66.4694 8.8398 66.2831 8.97151 66.058C9.10321 65.8328 9.17308 65.5769 9.17404 65.3161V56.3771C9.17404 55.8531 9.46404 55.3561 9.92804 55.0941L13.023 53.2891C13.2492 53.1511 13.5102 53.0807 13.775 53.0861C14.035 53.0861 14.297 53.1431 14.5 53.2891L17.596 55.0941C18.059 55.3561 18.35 55.8531 18.35 56.3771V65.3171C18.35 65.8391 18.638 66.3371 19.1 66.5971L26.336 70.7911C26.4486 70.8622 26.5789 70.8999 26.712 70.8999C26.8451 70.8999 26.9755 70.8622 27.088 70.7911C27.2033 70.7282 27.2992 70.6351 27.3656 70.5218C27.4321 70.4086 27.4664 70.2794 27.465 70.1481V51.0471C27.465 50.5231 27.175 50.0271 26.711 49.7641L14.47 42.6301C14.2642 42.5198 14.0385 42.4514 13.806 42.4291H13.685L13.686 42.4301ZM114.356 42.6371V42.6391L114.354 42.6411C114.101 42.6411 113.849 42.7061 113.617 42.8381L101.346 49.9681C100.883 50.2321 100.596 50.7271 100.596 51.2521V65.4921C100.596 66.0161 100.883 66.5121 101.346 66.7731L113.529 73.7621C113.749 73.891 113.998 73.9589 114.253 73.9589C114.508 73.9589 114.758 73.891 114.977 73.7621L122.357 69.6291C122.472 69.5659 122.567 69.4727 122.634 69.3595C122.7 69.2462 122.734 69.1172 122.732 68.9861C122.733 68.8555 122.699 68.7271 122.633 68.6144C122.567 68.5017 122.471 68.409 122.357 68.3461L110.03 61.2101C109.917 61.1439 109.824 61.0497 109.758 60.9368C109.692 60.8238 109.657 60.6958 109.655 60.5651V56.1101C109.654 55.9798 109.688 55.8516 109.754 55.7392C109.82 55.6269 109.916 55.5345 110.03 55.4721L113.884 53.2591C113.997 53.1881 114.127 53.1504 114.26 53.1504C114.393 53.1504 114.523 53.1881 114.636 53.2591L118.481 55.4721C118.593 55.5376 118.686 55.6305 118.752 55.7422C118.818 55.8538 118.855 55.9804 118.858 56.1101V59.6041C118.858 59.8671 119.002 60.1291 119.233 60.2451C119.346 60.3166 119.477 60.3545 119.61 60.3545C119.744 60.3545 119.874 60.3166 119.987 60.2451L127.278 55.9651C127.502 55.8352 127.687 55.6483 127.815 55.4234C127.942 55.1985 128.008 54.9437 128.005 54.6851V51.2201C128.005 50.6961 127.713 50.2011 127.278 49.9381L115.097 42.8371C114.872 42.7071 114.617 42.6378 114.357 42.6361L114.356 42.6371ZM47.313 42.6861C47.0736 42.6866 46.8386 42.7497 46.631 42.8691L34.461 49.9361L38.719 57.7461L47.457 42.7001C47.4095 42.694 47.3618 42.6897 47.314 42.6871H47.312L47.313 42.6861ZM47.879 42.8341L56.486 57.6481L60.531 50.2031C60.4561 50.1263 60.3721 50.0588 60.281 50.0021L54.01 46.3591L47.973 42.8711C47.943 42.8561 47.91 42.8461 47.879 42.8341ZM47.629 42.8941L38.855 57.9981L47.557 73.9631C47.581 73.9581 47.605 73.9561 47.629 73.9491L56.348 57.9021L47.628 42.8951L47.629 42.8941ZM34.252 50.0661C34.0718 50.1922 33.9251 50.3604 33.8247 50.5561C33.7243 50.7518 33.6733 50.9691 33.676 51.1891V65.4901C33.676 65.7181 33.738 65.9401 33.844 66.1371L38.572 57.9941L34.252 50.0661ZM60.702 50.4081L56.631 57.8981L60.949 65.3321V51.1891C60.949 50.9091 60.857 50.6361 60.701 50.4091L60.702 50.4081ZM80.758 53.2731C80.823 53.2731 80.888 53.2881 80.948 53.3181L85.141 55.7661C85.257 55.8241 85.316 55.9671 85.316 56.0841V60.9771C85.316 61.1231 85.256 61.2411 85.141 61.2991L80.945 63.7441C80.8863 63.7726 80.8219 63.7875 80.7565 63.7875C80.6912 63.7875 80.6268 63.7726 80.568 63.7441L76.373 61.3011C76.257 61.2431 76.197 61.0961 76.197 60.9791V56.0861C76.197 55.9401 76.258 55.8251 76.373 55.7661L80.568 53.3181C80.627 53.2885 80.6921 53.2731 80.758 53.2731ZM114.313 55.2531C114.261 55.2536 114.211 55.2696 114.168 55.2991L111.822 56.6681C111.778 56.6954 111.742 56.7338 111.717 56.7793C111.692 56.8249 111.679 56.8762 111.68 56.9281V59.6681C111.68 59.7841 111.735 59.8721 111.822 59.9301L114.168 61.2991C114.211 61.3274 114.261 61.3425 114.313 61.3425C114.364 61.3425 114.414 61.3274 114.457 61.2991L116.801 59.9291C116.845 59.9013 116.882 59.8628 116.907 59.8172C116.932 59.7715 116.945 59.7202 116.945 59.6681V56.9301C116.945 56.878 116.932 56.8268 116.907 56.7812C116.882 56.7357 116.845 56.6974 116.801 56.6701L114.457 55.2991C114.414 55.2709 114.364 55.2559 114.313 55.2561V55.2541V55.2531ZM56.494 58.1531L47.982 73.8181L47.996 73.8111L60.283 66.6741C60.626 66.4801 60.846 66.1481 60.92 65.7711L56.494 58.1531ZM38.711 58.2481L33.996 66.3651C34.096 66.4881 34.213 66.5951 34.346 66.6751L46.5 73.7371L46.63 73.8121H46.633C46.7277 73.8658 46.8284 73.9081 46.933 73.9381C46.964 73.9481 46.995 73.9531 47.025 73.9601C47.085 73.9731 47.143 73.9821 47.203 73.9871C47.232 73.9901 47.26 73.9891 47.289 73.9891L38.711 58.2481ZM63.221 71.6411C62.794 71.6411 62.368 71.7411 62.006 71.9451L50.456 78.6751C50.0853 78.8921 49.7779 79.2025 49.5645 79.5753C49.3511 79.9482 49.2393 80.3705 49.24 80.8001V94.2201C49.24 95.0941 49.703 95.9091 50.455 96.3471L53.496 98.0931C54.971 98.8211 55.491 98.8171 56.156 98.8171C58.326 98.8171 59.572 97.4791 59.572 95.1791V81.9361C59.5711 81.8442 59.5346 81.7563 59.4703 81.6907C59.406 81.6251 59.3189 81.5869 59.227 81.5841H57.752C57.659 81.5851 57.5701 81.6225 57.5043 81.6883C57.4385 81.7541 57.4011 81.843 57.4 81.9361V95.1841C57.4 96.2031 56.334 97.2231 54.627 96.3501L51.471 94.5161C51.355 94.4581 51.297 94.3091 51.297 94.1931V80.7681C51.297 80.6521 51.355 80.5051 51.471 80.4481L63.016 73.7521C63.103 73.6941 63.248 73.6941 63.366 73.7521L74.91 80.4471C75.025 80.5071 75.086 80.6231 75.086 80.7671V94.1911C75.086 94.3361 75.026 94.4561 74.91 94.5141L63.363 101.24C63.276 101.298 63.131 101.298 63.013 101.24L60.064 99.4631C59.976 99.4051 59.86 99.3771 59.774 99.4331C58.964 99.9011 58.821 99.9611 58.039 100.223C57.865 100.281 57.576 100.395 58.154 100.715L62.006 103.018C62.382 103.221 62.786 103.336 63.221 103.336C63.655 103.336 64.087 103.221 64.434 103.076L75.98 96.3501C76.351 96.1321 76.6583 95.8207 76.8715 95.447C77.0846 95.0733 77.1962 94.6503 77.195 94.2201V80.8001C77.195 79.9261 76.732 79.1141 75.98 78.6771L64.434 71.9471C64.0623 71.7438 63.6448 71.6378 63.221 71.6411ZM81.248 77.7701C80.6552 77.7725 80.0876 78.0102 79.6699 78.431C79.2523 78.8518 79.0189 79.4212 79.021 80.0141C79.0195 80.6066 79.2531 81.1755 79.6706 81.5959C80.0882 82.0162 80.6555 82.2537 81.248 82.2561C82.465 82.2561 83.478 81.2361 83.478 80.0141C83.4752 79.4223 83.2397 78.8554 82.8225 78.4358C82.4053 78.0161 81.8398 77.7774 81.248 77.7711V77.7701ZM81.218 78.1461H81.221C81.4679 78.143 81.7129 78.1891 81.9418 78.2817C82.1706 78.3744 82.3787 78.5116 82.554 78.6855C82.7293 78.8593 82.8682 79.0664 82.9626 79.2945C83.057 79.5226 83.1051 79.7672 83.104 80.0141C83.104 81.0341 82.263 81.9041 81.221 81.9041C80.209 81.9041 79.367 81.0621 79.367 80.0141C79.367 78.9661 80.236 78.1481 81.218 78.1461ZM80.408 78.7601V81.3201H80.902V80.3071H81.34C81.514 80.3071 81.57 80.3651 81.6 80.5101C81.6 80.5401 81.686 81.1791 81.686 81.2951H82.206C82.146 81.1791 82.119 80.8271 82.09 80.6231C82.062 80.3031 82.034 80.0721 81.686 80.0431C81.86 79.9841 82.146 79.8981 82.146 79.4321C82.146 78.7621 81.566 78.7621 81.277 78.7621L80.408 78.7601ZM80.846 79.1681H81.248C81.394 79.1681 81.627 79.1681 81.627 79.5181C81.627 79.6341 81.568 79.8681 81.248 79.8681H80.846V79.1681ZM66.377 81.1781C63.077 81.1781 61.105 82.5771 61.105 84.9361C61.105 87.4701 63.074 88.1641 66.229 88.4841C70.019 88.8641 70.309 89.4191 70.309 90.1761C70.309 91.4861 69.267 92.0371 66.836 92.0371C63.768 92.0371 63.101 91.2801 62.869 89.7381C62.869 89.5621 62.729 89.4481 62.555 89.4481H61.05C60.9572 89.4481 60.8682 89.485 60.8026 89.5506C60.7369 89.6162 60.7 89.7053 60.7 89.7981C60.7 91.7781 61.744 94.1051 66.81 94.1051C70.455 94.1051 72.565 92.6491 72.565 90.0851C72.565 87.5821 70.885 86.9111 67.327 86.4451C63.737 85.9791 63.362 85.7171 63.362 84.8731C63.362 84.1741 63.682 83.2441 66.342 83.2441C68.717 83.2441 69.614 83.7681 69.962 85.3691C69.9786 85.4416 70.0185 85.5067 70.0755 85.5544C70.1326 85.602 70.2037 85.6297 70.278 85.6331H71.812C71.899 85.6331 71.989 85.5761 72.048 85.5181C72.1023 85.4406 72.1323 85.3487 72.134 85.2541C71.903 82.4591 70.082 81.1781 66.377 81.1781Z" fill="#A19073"/>
</g>
<defs>
<clipPath id="clip0_7_17">
<rect width="128" height="128" fill="white"/>
</clipPath>
</defs>
</svg>
