<svg width="128" height="128" viewBox="0 0 128 128" fill="none" xmlns="http://www.w3.org/2000/svg">
<path d="M55.3875 66.4689H63.7205L59.3135 59.3789L51.2255 72.1979H47.5445L57.3825 56.7999C57.5986 56.4887 57.8876 56.2351 58.2241 56.0612C58.5607 55.8873 58.9347 55.7982 59.3135 55.8019C60.0785 55.8019 60.7915 56.1649 61.2055 56.7739L71.0815 72.1979H67.4005L65.6645 69.3329H57.2265L55.3875 66.4689ZM93.6225 69.3329V55.9579H90.4995V70.6429C90.4995 71.0449 90.6555 71.4339 90.9535 71.7319C91.2515 72.0299 91.6535 72.1979 92.0945 72.1979H106.339L108.18 69.3329H93.6225ZM41.9455 66.9359C44.9785 66.9359 47.4415 64.4869 47.4415 61.4539C47.4415 58.4209 44.9795 55.9579 41.9455 55.9579H28.2805V72.1989H31.4035V58.8219H41.7385C43.1905 58.8219 44.3565 60.0019 44.3565 61.4529C44.3565 62.9039 43.1895 64.0839 41.7385 64.0839L32.9325 64.0709L42.2565 72.1979H46.7945L40.5205 66.9349L41.9455 66.9359ZM9.0595 72.1979C4.5765 72.1979 0.9375 68.5689 0.9375 64.0839C0.9375 59.5989 4.5755 55.9569 9.0595 55.9569H18.4985C22.9835 55.9569 26.6195 59.5999 26.6195 64.0839C26.6195 68.5679 22.9835 72.1979 18.4985 72.1979H9.0595ZM18.2885 69.3329C18.9785 69.3339 19.662 69.1989 20.2998 68.9356C20.9376 68.6723 21.5173 68.2859 22.0056 67.7984C22.494 67.3109 22.8814 66.7319 23.1458 66.0945C23.4102 65.4571 23.5464 64.7739 23.5465 64.0839C23.5468 62.6888 22.993 61.3508 22.0071 60.3638C21.0211 59.3769 19.6835 58.8219 18.2885 58.8209H9.2675C7.8728 58.8225 6.53578 59.3777 5.55023 60.3645C4.56468 61.3514 4.01123 62.6892 4.0115 64.0839C4.01163 64.7737 4.14772 65.4568 4.41199 66.094C4.67626 66.7313 5.06353 67.3102 5.55166 67.7977C6.03979 68.2851 6.61921 68.6716 7.2568 68.9351C7.89439 69.1985 8.57764 69.3337 9.2675 69.3329H18.2885ZM77.6025 72.1979C73.1185 72.1979 69.4765 68.5689 69.4765 64.0839C69.4765 59.5989 73.1185 55.9569 77.6025 55.9569H88.8145L86.9855 58.8209H77.8105C76.4148 58.8217 75.0765 59.3764 74.0895 60.3632C73.1025 61.35 72.5476 62.6882 72.5465 64.0839C72.5465 66.9869 74.9065 69.3329 77.8105 69.3329H89.0735L87.2335 72.1979H77.6025ZM115.8 69.3329C114.655 69.3334 113.542 68.9601 112.63 68.2698C111.717 67.5795 111.055 66.61 110.745 65.5089H124.095L125.935 62.6449H110.745C111.058 61.545 111.72 60.577 112.632 59.8872C113.544 59.1973 114.656 58.823 115.8 58.8209H124.963L126.817 55.9569H115.592C111.108 55.9569 107.465 59.5999 107.465 64.0839C107.465 68.5679 111.108 72.1979 115.592 72.1979H125.223L127.064 69.3329H115.8Z" fill="#A19073"/>
</svg>
