<svg width="128" height="128" viewBox="0 0 128 128" fill="none" xmlns="http://www.w3.org/2000/svg">
<path d="M49.329 61.9995H78.488C86.605 61.9995 92.999 55.1315 92.999 46.9805V19.1825C92.999 11.2705 86.367 5.32652 78.444 4.00652C73.43 3.17152 68.249 2.79152 63.257 2.81552C58.267 2.83852 53.645 3.26352 49.452 4.00652C37.097 6.18752 34.999 10.7575 34.999 19.1825V29.9995H63.999V33.9995H23.775C15.291 33.9995 7.86104 39.1075 5.53804 48.8105C2.85704 59.9305 2.73804 66.7295 5.53804 78.3405C7.61304 86.9825 12.568 92.9995 21.053 92.9995H30.999V79.9515C30.999 70.3145 39.427 61.9995 49.329 61.9995ZM47.491 22.8895C44.465 22.8895 42.013 20.4105 42.013 17.3445C42.013 14.2655 44.464 11.7635 47.491 11.7635C50.506 11.7635 52.97 14.2655 52.97 17.3445C52.969 20.4105 50.505 22.8895 47.491 22.8895ZM122.28 48.8105C120.182 40.3625 116.177 33.9995 107.681 33.9995H96.999V46.9805C96.999 57.0305 88.205 64.9995 78.488 64.9995H49.329C41.341 64.9995 34.999 72.3255 34.999 80.3255V108.126C34.999 116.036 41.744 120.69 49.461 122.96C58.703 125.677 67.455 126.168 78.512 122.96C85.861 120.831 92.999 116.549 92.999 108.126V96.9995H63.999V92.9995H107.681C116.165 92.9995 119.328 87.2235 122.28 78.3395C125.327 69.1945 125.196 60.5405 122.28 48.8105ZM80.325 104.417C83.352 104.417 85.804 106.896 85.804 109.964C85.804 113.04 83.353 115.543 80.325 115.543C77.31 115.543 74.847 113.041 74.847 109.964C74.847 106.896 77.31 104.417 80.325 104.417Z" fill="#A19073"/>
</svg>
