<svg width="39" height="39" viewBox="0 0 39 39" fill="none" xmlns="http://www.w3.org/2000/svg">
<path d="M15.5 6.16667H18.1667M11.5 10.1667V3.5C11.5 2.79276 11.781 2.11448 12.2811 1.61438C12.7812 1.11429 13.4595 0.833334 14.1667 0.833334H24.8334C25.5406 0.833334 26.2189 1.11429 26.719 1.61438C27.2191 2.11448 27.5 2.79276 27.5 3.5V16.8333C27.5 17.5406 27.2191 18.2189 26.719 18.719C26.2189 19.219 25.5406 19.5 24.8334 19.5H14.1667C13.4595 19.5 12.7812 19.781 12.2811 20.281C11.781 20.7811 11.5 21.4594 11.5 22.1667V35.5C11.5 36.2072 11.781 36.8855 12.2811 37.3856C12.7812 37.8857 13.4595 38.1667 14.1667 38.1667H24.8334C25.5406 38.1667 26.2189 37.8857 26.719 37.3856C27.2191 36.8855 27.5 36.2072 27.5 35.5V28.8333M20.8334 11.5H3.50004C2.7928 11.5 2.11452 11.781 1.61442 12.281C1.11433 12.7811 0.833374 13.4594 0.833374 14.1667V27.5C0.833374 28.2072 1.11433 28.8855 1.61442 29.3856C2.11452 29.8857 2.7928 30.1667 3.50004 30.1667H11.5M18.1667 27.5H35.5C36.2073 27.5 36.8856 27.219 37.3857 26.719C37.8858 26.2189 38.1667 25.5406 38.1667 24.8333V11.5C38.1667 10.7928 37.8858 10.1145 37.3857 9.61438C36.8856 9.11428 36.2073 8.83333 35.5 8.83333H27.5M20.8334 32.8333H23.5" stroke="#8D7C60"/>
</svg>
