<svg width="36" height="33" viewBox="0 0 36 33" fill="none" xmlns="http://www.w3.org/2000/svg">
<path d="M18 13.35C19.7166 13.35 21.1166 14.75 21.1166 16.5C21.1166 18.1667 19.7166 19.5833 18 19.5833C16.2833 19.5833 14.8833 18.1667 14.8833 16.5C14.8833 14.75 16.2833 13.35 18 13.35ZM10.2833 29.8333C11.3333 30.4667 13.6333 29.5 16.2833 27C15.4166 26.0167 14.5666 24.95 13.7666 23.8333C12.4236 23.7048 11.0883 23.5045 9.76665 23.2333C8.91665 26.8 9.23331 29.25 10.2833 29.8333ZM11.4666 20.2667L10.9833 19.4167C10.8 19.9 10.6166 20.3833 10.5 20.85C10.95 20.95 11.45 21.0333 11.9666 21.1167L11.4666 20.2667ZM22.3666 19L23.7166 16.5L22.3666 14C21.8666 13.1167 21.3333 12.3333 20.85 11.55C19.95 11.5 19 11.5 18 11.5C17 11.5 16.05 11.5 15.15 11.55C14.6666 12.3333 14.1333 13.1167 13.6333 14L12.2833 16.5L13.6333 19C14.1333 19.8833 14.6666 20.6667 15.15 21.45C16.05 21.5 17 21.5 18 21.5C19 21.5 19.95 21.5 20.85 21.45C21.3333 20.6667 21.8666 19.8833 22.3666 19ZM18 7.8C17.6833 8.16667 17.35 8.55 17.0166 9H18.9833C18.65 8.55 18.3166 8.16667 18 7.8ZM18 25.2C18.3166 24.8333 18.65 24.45 18.9833 24H17.0166C17.35 24.45 17.6833 24.8333 18 25.2ZM25.7 3.16667C24.6666 2.53333 22.3666 3.5 19.7166 6C20.5833 6.98333 21.4333 8.05 22.2333 9.16667C23.6 9.3 24.95 9.5 26.2333 9.76667C27.0833 6.2 26.7666 3.75 25.7 3.16667ZM24.5333 12.7333L25.0166 13.5833C25.2 13.1 25.3833 12.6167 25.5 12.15C25.05 12.05 24.55 11.9667 24.0333 11.8833L24.5333 12.7333ZM26.95 0.983333C29.4 2.38333 29.6666 6.06667 28.6333 10.3667C32.8666 11.6167 35.9166 13.6833 35.9166 16.5C35.9166 19.3167 32.8666 21.3833 28.6333 22.6333C29.6666 26.9333 29.4 30.6167 26.95 32.0167C24.5166 33.4167 21.2 31.8167 18 28.7667C14.8 31.8167 11.4833 33.4167 9.03331 32.0167C6.59998 30.6167 6.33331 26.9333 7.36665 22.6333C3.13331 21.3833 0.083313 19.3167 0.083313 16.5C0.083313 13.6833 3.13331 11.6167 7.36665 10.3667C6.33331 6.06667 6.59998 2.38333 9.03331 0.983333C11.4833 -0.416667 14.8 1.18333 18 4.23333C21.2 1.18333 24.5166 -0.416667 26.95 0.983333ZM26.4666 16.5C27.0333 17.75 27.5333 19 27.95 20.2667C31.45 19.2167 33.4166 17.7167 33.4166 16.5C33.4166 15.2833 31.45 13.7833 27.95 12.7333C27.5333 14 27.0333 15.25 26.4666 16.5ZM9.53331 16.5C8.96665 15.25 8.46665 14 8.04998 12.7333C4.54998 13.7833 2.58331 15.2833 2.58331 16.5C2.58331 17.7167 4.54998 19.2167 8.04998 20.2667C8.46665 19 8.96665 17.75 9.53331 16.5ZM24.5333 20.2667L24.0333 21.1167C24.55 21.0333 25.05 20.95 25.5 20.85C25.3833 20.3833 25.2 19.9 25.0166 19.4167L24.5333 20.2667ZM19.7166 27C22.3666 29.5 24.6666 30.4667 25.7 29.8333C26.7666 29.25 27.0833 26.8 26.2333 23.2333C24.95 23.5 23.6 23.7 22.2333 23.8333C21.4333 24.95 20.5833 26.0167 19.7166 27ZM11.4666 12.7333L11.9666 11.8833C11.45 11.9667 10.95 12.05 10.5 12.15C10.6166 12.6167 10.8 13.1 10.9833 13.5833L11.4666 12.7333ZM16.2833 6C13.6333 3.5 11.3333 2.53333 10.2833 3.16667C9.23331 3.75 8.91665 6.2 9.76665 9.76667C11.0883 9.49549 12.4236 9.2952 13.7666 9.16667C14.5666 8.05 15.4166 6.98333 16.2833 6Z" fill="#8D7C60"/>
</svg>
