<svg width="128" height="128" viewBox="0 0 128 128" fill="none" xmlns="http://www.w3.org/2000/svg">
<path d="M51.3951 7.75781C23.9991 7.75781 1.79109 11.5818 1.74809 16.2978L1.74609 16.2888V43.5818C1.74609 48.3048 23.9731 52.1168 51.3951 52.1168C78.8151 52.1168 101.043 48.2808 101.043 43.5818V16.2888L101.041 16.2988C100.998 11.5818 78.7861 7.75781 51.3951 7.75781ZM34.1271 24.3278C35.5171 24.4178 36.9321 24.4968 38.3771 24.5638C37.8031 24.5378 37.1971 24.5238 36.6311 24.4938C35.7711 24.4478 34.9661 24.3818 34.1271 24.3278ZM54.5801 24.8438C53.5161 24.8558 52.4761 24.8808 51.3951 24.8808V24.8788C50.7411 24.8788 50.1201 24.8578 49.4731 24.8538C50.1151 24.8578 50.7461 24.8708 51.3951 24.8708C52.4701 24.8708 53.5221 24.8548 54.5801 24.8438ZM1.74609 50.5618V74.3318C1.74609 79.0588 23.9731 82.8668 51.3951 82.8668C57.8971 82.8668 64.0671 82.6388 69.7521 82.2468C74.0741 71.3338 84.7141 63.6128 97.1641 63.6128C98.4801 63.6128 99.7731 63.7078 101.043 63.8748V50.5618C101.043 55.2888 78.8151 59.0978 51.3951 59.0978C23.9731 59.0978 1.74609 55.2638 1.74609 50.5618ZM97.1641 67.2498C86.8861 67.2498 78.0131 73.2488 73.8501 81.9358C73.5568 82.5528 73.2882 83.1813 73.0451 83.8198C72.8451 84.3418 72.6531 84.8698 72.4861 85.4058V85.4078C72.3189 85.9517 72.1699 86.501 72.0391 87.0548C72.0091 87.1788 71.9831 87.3028 71.9551 87.4278C71.8286 87.9827 71.7205 88.5417 71.6311 89.1038C71.4268 90.4226 71.3241 91.7552 71.3241 93.0898C71.3241 102.377 76.2241 110.516 83.5781 115.07C84.0631 115.37 84.5581 115.654 85.0621 115.922C85.0921 115.938 85.1241 115.952 85.1541 115.969C85.6071 116.207 86.0711 116.431 86.5391 116.643C86.6151 116.677 86.6911 116.713 86.7681 116.746C87.7691 117.187 88.8041 117.566 89.8681 117.879C90.4145 118.039 90.9662 118.181 91.5221 118.305C91.6141 118.325 91.7061 118.349 91.7991 118.369C92.3351 118.483 92.8791 118.579 93.4281 118.659L93.6601 118.687C94.1361 118.752 94.6141 118.802 95.0981 118.84L95.4731 118.87C96.0331 118.905 96.5951 118.93 97.1641 118.93C102.312 118.935 107.344 117.398 111.611 114.518C112.984 113.59 114.265 112.533 115.436 111.361C118.394 108.401 120.592 104.769 121.842 100.775C122.354 99.1326 122.699 97.4431 122.872 95.7318C123.036 94.1107 123.046 92.4778 122.902 90.8548C122.895 90.7738 122.891 90.6908 122.882 90.6088C122.804 89.8005 122.689 88.9962 122.535 88.1988C122.411 87.5506 122.262 86.9075 122.088 86.2708C122.052 86.1398 122.013 86.0098 121.975 85.8788C121.792 85.244 121.585 84.6166 121.354 83.9978C121.319 83.9068 121.281 83.8178 121.246 83.7268C120.999 83.0862 120.727 82.4557 120.43 81.8368C120.407 81.7918 120.382 81.7468 120.36 81.7008C120.055 81.0798 119.725 80.4713 119.371 79.8768L119.314 79.7808C118.955 79.187 118.572 78.6078 118.166 78.0448C118.121 77.9818 118.079 77.9178 118.033 77.8548C117.642 77.3213 117.23 76.8029 116.799 76.3008C116.722 76.2108 116.643 76.1218 116.564 76.0328C116.134 75.5428 115.685 75.0668 115.219 74.6108C115.149 74.5428 115.076 74.4778 115.006 74.4108C114.518 73.9423 114.013 73.4929 113.49 73.0638C113.45 73.0308 113.408 72.9998 113.367 72.9668C112.829 72.5321 112.274 72.1191 111.703 71.7288C111.676 71.7098 111.65 71.6898 111.623 71.6718L111.611 71.6638C111.042 71.2821 110.458 70.9231 109.861 70.5878C109.787 70.5458 109.714 70.5008 109.639 70.4588C108.957 70.0837 108.258 69.7397 107.545 69.4278C106.945 69.1638 106.332 68.9208 105.709 68.7028C105.594 68.6628 105.477 68.6248 105.361 68.5858C104.731 68.3733 104.092 68.1855 103.447 68.0228C103.345 67.9978 103.24 67.9778 103.137 67.9528C102.448 67.7868 101.753 67.6493 101.053 67.5408L101.043 67.5388C99.7591 67.3461 98.4625 67.2495 97.1641 67.2498ZM88.0621 78.1638L112.09 92.0348L88.0621 105.906V78.1638ZM1.74609 81.3158V108.606C1.74609 113.332 23.9731 117.141 51.3951 117.141C61.3751 117.141 70.5311 116.605 78.2851 115.729C71.8071 110.321 67.6841 102.188 67.6841 93.0888C67.6863 91.8382 67.7678 90.5891 67.9281 89.3488C62.4234 89.6826 56.9099 89.849 51.3951 89.8478C23.9731 89.8478 1.74609 86.0158 1.74609 81.3158Z" fill="#A19073"/>
</svg>
