<svg width="41" height="41" viewBox="0 0 41 41" fill="none" xmlns="http://www.w3.org/2000/svg">
<path d="M13.0133 0.5C12.535 0.5 12.0583 0.5 11.58 0.503333C11.1783 0.506667 10.775 0.508333 10.3733 0.52C10.1533 0.525 9.935 0.535 9.715 0.545C9.05514 0.570664 8.39765 0.639141 7.74667 0.75C6.87908 0.903409 6.03818 1.18128 5.25 1.575C3.66782 2.37984 2.38127 3.66521 1.575 5.24667C1.16667 6.04667 0.908333 6.86667 0.75 7.74667C0.595 8.61333 0.546667 9.49667 0.523333 10.3733C0.51253 10.7755 0.505863 11.1777 0.503333 11.58C0.5 12.0583 0.5 12.535 0.5 13.0133V27.9867C0.5 28.465 0.5 28.945 0.503333 29.4233C0.506667 29.8233 0.511667 30.225 0.523333 30.6267C0.546667 31.5033 0.595 32.3883 0.75 33.2533C0.908333 34.1333 1.16667 34.9533 1.575 35.7533C2.38033 37.3355 3.66713 38.6211 5.25 39.425C6.05 39.8317 6.86667 40.0917 7.74667 40.25C8.61333 40.405 9.49667 40.4567 10.3733 40.48C10.775 40.4917 11.1783 40.495 11.58 40.4967C12.0583 40.5 12.535 40.5 13.0133 40.5H27.9867C28.465 40.5 28.9417 40.5 29.42 40.4967C29.8217 40.495 30.225 40.4917 30.6267 40.48C31.5079 40.4695 32.387 40.3926 33.2567 40.25C34.1253 40.1006 34.9667 39.8225 35.7533 39.425C37.3346 38.6201 38.6201 37.3346 39.425 35.7533C39.8333 34.9533 40.0917 34.1333 40.25 33.2533C40.405 32.3867 40.4567 31.5033 40.48 30.6267C40.4917 30.225 40.495 29.825 40.4967 29.4233C40.5 28.945 40.5 28.465 40.5 27.9867V13.0133C40.5 12.535 40.5 12.0583 40.4967 11.58C40.4954 11.1777 40.4899 10.7755 40.48 10.3733C40.4695 9.49324 40.3926 8.61519 40.25 7.74667C40.1007 6.87697 39.8227 6.03438 39.425 5.24667C38.6197 3.66565 37.3343 2.38031 35.7533 1.575C34.9667 1.17744 34.1253 0.899386 33.2567 0.75C32.387 0.607178 31.5079 0.530292 30.6267 0.52C30.2256 0.510305 29.8245 0.504749 29.4233 0.503333C28.945 0.5 28.465 0.5 27.9867 0.5H13.0133ZM23.0717 6.18333C29.9283 10.3 33.98 18.12 32.32 24.735C32.28 24.89 32.2367 25.0367 32.1933 25.1883L32.1967 25.19C35.6333 29.42 34.6967 33.9533 34.2567 33.0983C32.47 29.6217 29.1467 30.485 27.4433 31.36C27.2893 31.4515 27.1332 31.5393 26.975 31.6233L26.9417 31.6433L26.9383 31.6467C23.4133 33.5183 18.6767 33.655 13.9183 31.61C10.0439 29.9311 6.76732 27.1205 4.51833 23.5467C5.6 24.3467 6.76833 25.05 8.01333 25.6333C13.045 27.99 18.0983 27.8183 21.675 25.63C16.585 21.7167 12.335 16.6167 9.07667 12.485C8.45727 11.7624 7.89712 10.991 7.40167 10.1783C11.3017 13.7483 17.465 18.2283 19.6767 19.4717C14.9833 14.5133 10.8467 8.405 11.04 8.6C18.4333 16.05 25.2533 20.26 25.2533 20.26C25.51 20.4017 25.7033 20.5167 25.8533 20.615C25.995 20.2567 26.12 19.8867 26.2267 19.5017C27.4067 15.1883 26.0767 10.255 23.0717 6.18167V6.18333Z" fill="#8D7C60"/>
</svg>
