<svg width="128" height="128" viewBox="0 0 128 128" fill="none" xmlns="http://www.w3.org/2000/svg">
<path d="M125.539 26.2302C125.014 23.5921 124.122 21.0407 122.889 18.6502C121.6 16.3349 119.999 14.2082 118.129 12.3302C116.201 10.4436 113.961 8.90432 111.509 7.78023C109.089 6.55994 106.501 5.70723 103.829 5.25023C101.179 4.74023 98.2692 4.74023 95.6192 4.49023H30.2492C28.2101 4.52344 26.1755 4.69382 24.1592 5.00023C22.1583 5.23566 20.1997 5.74719 18.3392 6.52023C17.8092 6.77023 17.0192 7.03023 16.4892 7.28023C14.729 8.22379 13.0558 9.32141 11.4892 10.5602C10.9592 11.0702 10.4292 11.3202 9.89922 11.8202C7.95028 13.6279 6.3385 15.7679 5.13922 18.1402C3.82955 20.4971 2.93325 23.0608 2.48922 25.7202C2.09509 28.3154 1.83143 30.9287 1.69922 33.5502V93.9402C1.70004 96.5701 1.9647 99.1932 2.48922 101.77C3.014 104.408 3.90601 106.96 5.13922 109.35C6.428 111.666 8.02974 113.792 9.89922 115.67C11.8274 117.557 14.067 119.096 16.5192 120.22C18.9393 121.441 21.5277 122.293 24.1992 122.75C26.8492 123.26 29.7592 123.26 32.4092 123.51H95.6292C98.3834 123.508 101.132 123.254 103.839 122.75C106.511 122.293 109.099 121.441 111.519 120.22C113.919 119.006 116.146 117.476 118.139 115.67C120.088 113.863 121.7 111.723 122.899 109.35C124.209 106.993 125.105 104.43 125.549 101.77C125.943 99.1751 126.207 96.5618 126.339 93.9402V34.0602C126.335 31.43 126.067 28.8069 125.539 26.2302ZM106.749 101.77C100.999 91.0002 90.3692 94.3302 84.9992 96.5002C73.8892 102.63 58.6192 103.26 43.2492 96.9702C31.2654 92.1078 21.0191 83.7568 13.8392 73.0002C17.1759 75.5545 20.8213 77.6779 24.6892 79.3202C40.5592 86.4202 56.4192 85.9302 67.5892 79.3202C51.6892 67.6602 38.1892 52.5002 28.1292 40.1202C26.144 38.028 24.3719 35.7434 22.8392 33.3002C34.9992 43.9102 54.3392 57.3002 61.2192 61.0902C51.396 51.0251 42.3689 40.2126 34.2192 28.7502C47.7663 41.9151 62.6732 53.604 78.6892 63.6202C79.3992 64.0002 79.9492 64.3202 80.3892 64.6202C80.8587 63.4741 81.2627 62.3022 81.5992 61.1102C85.3092 48.2202 81.0692 33.5702 71.8092 21.4402C93.2492 33.8102 105.999 57.0502 100.659 76.5102C100.519 77.0402 100.369 77.5102 100.209 78.0602L100.399 78.2802C110.999 90.9102 108.069 104.3 106.749 101.77Z" fill="#A19073"/>
</svg>
